<?xml version="1.0" encoding="iso-8859-1"?>
<!-- Generator: Adobe Illustrator 16.0.0, SVG Export Plug-In . SVG Version: 6.00 Build 0)  -->
<!DOCTYPE svg PUBLIC "-//W3C//DTD SVG 1.1//EN" "http://www.w3.org/Graphics/SVG/1.1/DTD/svg11.dtd">
<svg version="1.1" id="Layer_1" xmlns="http://www.w3.org/2000/svg" xmlns:xlink="http://www.w3.org/1999/xlink" x="0px" y="0px"
	 width="512px" height="512px" viewBox="0 0 512 512" style="enable-background:new 0 0 512 512;" xml:space="preserve">
<g>
	<path d="M372.385,383.641c43.154-34.335,70.872-87.281,70.872-146.586c0-35.087-9.709-67.946-26.569-96.047
		c2.342-1.315,4.523-2.938,6.481-4.896c13.83-13.829,11.518-38.563-5.16-55.241c-16.68-16.68-41.413-18.99-55.242-5.161
		c-1.515,1.515-2.824,3.167-3.954,4.919C329.281,61.153,293.944,49.798,256,49.798s-73.28,11.355-102.812,30.83
		c-1.13-1.751-2.439-3.404-3.954-4.918c-13.83-13.829-38.563-11.519-55.243,5.161c-16.678,16.679-18.989,41.412-5.16,55.241
		c1.958,1.958,4.14,3.58,6.481,4.896c-16.86,28.101-26.569,60.959-26.569,96.047c0,59.305,27.718,112.251,70.872,146.585
		l-39.04,42.596c-8.009,8.739-7.417,22.315,1.321,30.325c4.12,3.776,9.315,5.641,14.496,5.641c5.807,0,11.596-2.343,15.829-6.961
		l44.508-48.562c24.087,11.302,50.951,17.633,79.271,17.633s55.184-6.331,79.271-17.633l44.509,48.563
		c4.233,4.619,10.021,6.961,15.828,6.961c5.18,0,10.376-1.865,14.496-5.641c8.738-8.009,9.33-21.586,1.32-30.325L372.385,383.641z
		 M256,381.385c-79.584,0-144.331-64.746-144.331-144.33c0-79.584,64.747-144.331,144.331-144.331s144.331,64.747,144.331,144.331
		C400.331,316.639,335.584,381.385,256,381.385z"/>
	<path d="M322.939,172.625L256,239.565l-66.938-66.939c-7.812-7.811-20.475-7.811-28.285,0s-7.811,20.474,0,28.284l81.082,81.081
		c7.811,7.811,20.473,7.811,28.284,0l81.081-81.081c7.811-7.811,7.811-20.474,0-28.284S330.75,164.815,322.939,172.625z"/>
</g>
</svg>
