<?xml version="1.0" encoding="iso-8859-1"?>
<!-- Generator: Adobe Illustrator 16.0.0, SVG Export Plug-In . SVG Version: 6.00 Build 0)  -->
<!DOCTYPE svg PUBLIC "-//W3C//DTD SVG 1.1//EN" "http://www.w3.org/Graphics/SVG/1.1/DTD/svg11.dtd">
<svg version="1.1" id="Layer_1" xmlns="http://www.w3.org/2000/svg" xmlns:xlink="http://www.w3.org/1999/xlink" x="0px" y="0px"
	 width="512px" height="512px" viewBox="0 0 512 512" style="enable-background:new 0 0 512 512;" xml:space="preserve">
<g>
	<path d="M461.339,120.322H50.661c-10.63,0-19.246,8.617-19.246,19.246v232.864c0,10.629,8.616,19.246,19.246,19.246h410.678
		c10.63,0,19.246-8.617,19.246-19.246V139.568C480.585,128.939,471.969,120.322,461.339,120.322z M448.829,359.922H63.171V152.078
		h385.658V359.922z"/>
	<path d="M89.824,292.66h10.462c1.562,0,2.975-0.931,3.591-2.366l6.034-14.043h35.998l6.114,14.06
		c0.621,1.427,2.028,2.35,3.585,2.35h10.913c1.324,0,2.558-0.67,3.278-1.78c0.721-1.111,0.832-2.51,0.293-3.719l-29.23-65.653
		c-0.627-1.411-2.027-2.319-3.57-2.319h-18.744c-1.554,0-2.959,0.919-3.582,2.342l-28.724,65.653
		c-0.528,1.208-0.412,2.602,0.311,3.706C87.274,291.994,88.505,292.66,89.824,292.66z M127.475,234.693l11.204,25.686H116.71
		L127.475,234.693z"/>
	<path d="M175.239,292.66h10.227c2.159,0,3.909-1.75,3.909-3.909v-50.645l23.068,52.224c0.625,1.416,2.026,2.33,3.575,2.33h11.351
		c1.526,0,2.913-0.889,3.552-2.275l23.617-51.345v49.711c0,2.159,1.75,3.909,3.909,3.909h10.224c2.158,0,3.908-1.75,3.908-3.909
		v-65.653c0-2.159-1.75-3.909-3.908-3.909h-22.33c-1.539,0-2.936,0.903-3.565,2.306l-21.103,46.961l-21.037-46.954
		c-0.63-1.406-2.026-2.311-3.567-2.311h-21.829c-2.159,0-3.909,1.75-3.909,3.909v65.65C171.33,290.91,173.08,292.66,175.239,292.66z
		"/>
	<path d="M300.1,292.66h63.107c1.114,0,2.176-0.476,2.917-1.307l20.492-22.979l19.967,23.085c0.742,0.859,1.821,1.352,2.957,1.352
		h12.636c1.523,0,2.908-0.885,3.548-2.268s0.418-3.011-0.568-4.172l-26.549-31.259l26.403-29.235
		c1.035-1.146,1.299-2.796,0.671-4.208c-0.627-1.412-2.026-2.322-3.572-2.322h-12.424c-1.104,0-2.154,0.466-2.896,1.283
		l-19.503,21.503l-18.829-21.604c-0.743-0.852-1.817-1.34-2.947-1.34H300.1c-2.159,0-3.909,1.75-3.909,3.909v65.653
		C296.19,290.91,297.94,292.66,300.1,292.66z M313.952,262.722h35.864c2.159,0,3.909-1.75,3.909-3.91v-6.129
		c0-2.159-1.75-3.909-3.909-3.909h-35.864v-13.766l43.876,0.065l17.556,20.04l-19.849,22.132h-41.583V262.722z"/>
</g>
</svg>
