<?xml version="1.0" encoding="iso-8859-1"?>
<!-- Generator: Adobe Illustrator 16.0.0, SVG Export Plug-In . SVG Version: 6.00 Build 0)  -->
<!DOCTYPE svg PUBLIC "-//W3C//DTD SVG 1.1//EN" "http://www.w3.org/Graphics/SVG/1.1/DTD/svg11.dtd">
<svg version="1.1" id="Layer_1" xmlns="http://www.w3.org/2000/svg" xmlns:xlink="http://www.w3.org/1999/xlink" x="0px" y="0px"
	 width="512px" height="512px" viewBox="0 0 512 512" style="enable-background:new 0 0 512 512;" xml:space="preserve">
<g>
	<path d="M481.934,330.151c-7.675-3.648-21.885-6.893-46.002-1.642c-1.667,0.306-112.114,19.947-132.734,23.653
		c-3.177,0.57-5.119,4.429-5.119,4.429c-40.774,62.781-105.437,17.883-105.142,16.967c36.45,10.106,67.418-3.995,79.028-17.937
		c27.118-32.562-15.759-37.399-38.477-42.924c-85.094-20.694-88.682,0.513-137.964,5.199l-75.542,10.697
		c-1.712,0.519-3.128,1.734-3.899,3.349c-0.772,1.614-0.83,3.479-0.16,5.138l3.051,7.545c7.604,18.808,15.251,46.833,23.292,65.874
		c0.517,1.228,1.407,2.262,2.544,2.957c0.252,0.155,0.589,0.345,1.011,0.545c1.508,0.717,3.208,1.144,4.595,1.141l53.686-1.061
		c2.814-0.017,122.088,69.214,179.354,46.278l178.373-79.97c7.098-3.359,14.436-6.832,21.741-10.207
		c7.973-3.682,12.927-12.146,12.972-20.372C496.589,341.211,491.145,334.528,481.934,330.151z"/>
	<path d="M112.291,127.316h5.355v128.519c0,9.859,7.993,17.852,17.853,17.852H376.5c9.859,0,17.852-7.993,17.852-17.852V127.316
		h5.356c4.931,0,8.927-3.997,8.927-8.926V55.908c0-4.93-3.996-8.926-8.927-8.926H112.291c-4.93,0-8.926,3.996-8.926,8.926v62.482
		C103.365,123.319,107.361,127.316,112.291,127.316z M235.916,72.978h40.167c7.888,0,14.282,6.395,14.282,14.282
		c0,7.888-6.395,14.281-14.282,14.281h-40.167c-7.887,0-14.281-6.394-14.281-14.281C221.635,79.373,228.029,72.978,235.916,72.978z"
		/>
</g>
</svg>
