<?xml version="1.0" encoding="iso-8859-1"?>
<!-- Generator: Adobe Illustrator 16.0.0, SVG Export Plug-In . SVG Version: 6.00 Build 0)  -->
<!DOCTYPE svg PUBLIC "-//W3C//DTD SVG 1.1//EN" "http://www.w3.org/Graphics/SVG/1.1/DTD/svg11.dtd">
<svg version="1.1" id="Layer_1" xmlns="http://www.w3.org/2000/svg" xmlns:xlink="http://www.w3.org/1999/xlink" x="0px" y="0px"
	 width="512px" height="512px" viewBox="0 0 512 512" style="enable-background:new 0 0 512 512;" xml:space="preserve">
<g>
</g>
<g>
	<path d="M290.083,302.025h-14.322v-10.22h-39.521v10.22h-14.321v-19.647h68.165V302.025z M290.083,259.669h-68.165v-17.464h14.321
		v8.037h39.521v-8.037h14.322V259.669z"/>
	<path d="M463.837,133.936H356.161v-48.12c0-17.815-14.496-32.31-32.311-32.31H188.147c-17.815,0-32.308,14.494-32.308,32.31v48.12
		H48.163c-5.948,0-10.77,4.821-10.77,10.77v303.019c0,5.949,4.821,10.771,10.77,10.771h415.674c5.951,0,10.77-4.821,10.77-10.771
		V144.705C474.606,138.757,469.788,133.936,463.837,133.936z M198.921,96.585h114.16v37.351h-114.16V96.585z M437.939,282.378
		h-38.507c-0.118,0-0.233-0.014-0.352-0.017h-88.575v31.783c0,4.58-3.726,8.306-8.304,8.306h-26.441v25.796
		c0,1.053-0.386,2.067-1.084,2.854l-15.467,17.401c-0.816,0.917-1.982,1.442-3.209,1.442c-1.228,0-2.396-0.525-3.211-1.442
		l-15.466-17.401c-0.699-0.787-1.085-1.802-1.085-2.854V322.45H209.8c-4.58,0-8.306-3.726-8.306-8.306v-31.783h-88.576
		c-0.117,0.003-0.232,0.017-0.351,0.017H74.061c-6.317,0-11.439-5.121-11.439-11.438s5.122-11.438,11.439-11.438h38.507h88.927
		v-29.417c0-4.58,3.726-8.305,8.306-8.305h26.439v-17.785c0-2.373,1.924-4.296,4.296-4.296h30.931c2.372,0,4.295,1.923,4.295,4.296
		v17.785h26.441c4.578,0,8.304,3.725,8.304,8.305v29.417h88.927h38.507c6.317,0,11.438,5.121,11.438,11.438
		S444.257,282.378,437.939,282.378z"/>
</g>
</svg>
