<?xml version="1.0" encoding="iso-8859-1"?>
<!-- Generator: Adobe Illustrator 16.0.0, SVG Export Plug-In . SVG Version: 6.00 Build 0)  -->
<!DOCTYPE svg PUBLIC "-//W3C//DTD SVG 1.1//EN" "http://www.w3.org/Graphics/SVG/1.1/DTD/svg11.dtd">
<svg version="1.1" id="Layer_1" xmlns="http://www.w3.org/2000/svg" xmlns:xlink="http://www.w3.org/1999/xlink" x="0px" y="0px"
	 width="512px" height="512px" viewBox="0 0 512 512" style="enable-background:new 0 0 512 512;" xml:space="preserve">
<g>
	<path d="M256,93.588c-66.97,0-121.452,54.481-121.452,121.451c0,30.306,14.693,59.805,28.901,88.333
		c13.488,27.082,26.228,52.66,26.228,77.055c0,6.181,5.012,11.193,11.193,11.193h2.221h105.817h2.221
		c6.182,0,11.193-5.012,11.193-11.193c0-25.452,12.889-51.13,26.535-78.314c14.058-28.006,28.594-56.963,28.594-87.073
		C377.452,148.069,322.97,93.588,256,93.588z"/>
	<path d="M391.513,144.032c1.606,0,3.234-0.408,4.724-1.269l23.351-13.481c4.528-2.615,6.079-8.404,3.465-12.931
		c-2.614-4.529-8.403-6.079-12.93-3.465l-23.351,13.481c-4.528,2.613-6.079,8.402-3.465,12.93
		C385.061,142.335,388.242,144.032,391.513,144.032z"/>
	<path d="M419.588,296.315l-23.351-13.48c-4.527-2.612-10.315-1.062-12.931,3.465c-2.613,4.527-1.062,10.316,3.465,12.93
		l23.351,13.48c1.49,0.861,3.118,1.27,4.724,1.27c3.271,0,6.453-1.698,8.206-4.734C425.667,304.718,424.114,298.93,419.588,296.315z
		"/>
	<path d="M115.762,282.835l-23.35,13.48c-4.527,2.615-6.079,8.403-3.465,12.931c1.753,3.037,4.936,4.734,8.206,4.734
		c1.606,0,3.234-0.409,4.725-1.27l23.35-13.48c4.527-2.614,6.079-8.404,3.464-12.93
		C126.079,281.771,120.289,280.222,115.762,282.835z"/>
	<path d="M125.228,126.368l-23.35-13.481c-4.527-2.613-10.315-1.063-12.931,3.465c-2.614,4.527-1.063,10.316,3.465,12.931
		l23.35,13.481c1.491,0.86,3.118,1.269,4.724,1.269c3.272,0,6.454-1.697,8.207-4.733
		C131.307,134.771,129.756,128.981,125.228,126.368z"/>
	<path d="M256,65.796c5.229,0,9.466-4.237,9.466-9.465V29.37c0-5.229-4.238-9.466-9.466-9.466c-5.228,0-9.465,4.237-9.465,9.466
		v26.961C246.535,61.56,250.772,65.796,256,65.796z"/>
	<path d="M311.352,420.333c0-4.992-2.988-9.279-7.268-11.193h-96.168c-4.28,1.914-7.268,6.201-7.268,11.193
		c0,4.993,2.988,9.279,7.268,11.193c-4.28,1.915-7.268,6.201-7.268,11.193c0,4.993,2.988,9.279,7.268,11.193
		c-4.28,1.916-7.268,6.202-7.268,11.194c0,6.775,5.493,12.265,12.267,12.265h2.651c3.831,8.671,12.5,14.725,22.588,14.725h35.693
		c10.088,0,18.757-6.054,22.589-14.725h2.65c6.774,0,12.267-5.489,12.267-12.265c0-4.992-2.988-9.278-7.268-11.194
		c4.28-1.914,7.268-6.2,7.268-11.193c0-4.992-2.988-9.279-7.268-11.193C308.364,429.612,311.352,425.326,311.352,420.333z"/>
</g>
</svg>
