<?xml version="1.0" encoding="iso-8859-1"?>
<!-- Generator: Adobe Illustrator 16.0.0, SVG Export Plug-In . SVG Version: 6.00 Build 0)  -->
<!DOCTYPE svg PUBLIC "-//W3C//DTD SVG 1.1//EN" "http://www.w3.org/Graphics/SVG/1.1/DTD/svg11.dtd">
<svg version="1.1" id="Layer_1" xmlns="http://www.w3.org/2000/svg" xmlns:xlink="http://www.w3.org/1999/xlink" x="0px" y="0px"
	 width="512px" height="512px" viewBox="0 0 512 512" style="enable-background:new 0 0 512 512;" xml:space="preserve">
<path d="M469.455,145.625c-1-3.455-3.362-6.423-6.636-8.152L262.278,31.554c-3.928-2.074-8.627-2.074-12.556,0L49.181,137.473
	c-3.273,1.729-5.636,4.697-6.635,8.152c-0.426,1.317-0.652,2.709-0.652,4.135v212.532c0,4.978,2.751,9.549,7.151,11.878
	l200.665,106.268c1.968,1.042,4.129,1.563,6.291,1.563s4.324-0.521,6.291-1.563l200.664-106.268c4.4-2.33,7.151-6.9,7.151-11.878
	V149.76C470.106,148.334,469.881,146.942,469.455,145.625z M220.046,92.108l32.443-17.182c2.053-1.087,4.511-1.087,6.564,0
	l119.697,63.389c2.297,1.216,3.732,3.603,3.731,6.202c-0.001,2.598-1.44,4.983-3.738,6.198l-35.465,18.73
	c-1.025,0.541-2.15,0.812-3.275,0.812c-1.176,0-2.351-0.295-3.41-0.885l-116.676-64.938c-2.247-1.25-3.629-3.629-3.602-6.201
	C216.342,95.661,217.773,93.312,220.046,92.108z M255.771,427.371c0,2.46-1.289,4.74-3.396,6.009
	c-1.11,0.668-2.362,1.004-3.617,1.004c-1.126,0-2.254-0.27-3.282-0.815L84.403,348.268c-2.296-1.214-3.731-3.6-3.731-6.197V174.474
	c0-2.458,1.288-4.737,3.393-6.006c2.105-1.269,4.721-1.342,6.895-0.195l161.073,85.072c2.3,1.214,3.739,3.601,3.739,6.201V427.371z
	 M291.484,196.802l-32.438,17.132c-1.025,0.541-2.15,0.812-3.275,0.812c-1.125,0-2.25-0.271-3.275-0.812l-119.698-63.219
	c-2.299-1.214-3.737-3.6-3.738-6.198c-0.001-2.599,1.434-4.986,3.731-6.202l35.527-18.814c2.098-1.113,4.617-1.085,6.693,0.069
	l116.609,64.901c2.248,1.252,3.631,3.633,3.602,6.206C295.194,193.249,293.76,195.6,291.484,196.802z M396.229,239.349
	l-43.261,22.514c-9.012,4.69-18.094,2.111-20.286-5.759c-2.192-7.872,3.337-18.056,12.349-22.745l43.261-22.515
	c9.012-4.689,18.095-2.111,20.286,5.76C410.771,224.475,405.241,234.659,396.229,239.349z"/>
</svg>
