<?xml version="1.0" encoding="iso-8859-1"?>
<!-- Generator: Adobe Illustrator 16.0.0, SVG Export Plug-In . SVG Version: 6.00 Build 0)  -->
<!DOCTYPE svg PUBLIC "-//W3C//DTD SVG 1.1//EN" "http://www.w3.org/Graphics/SVG/1.1/DTD/svg11.dtd">
<svg version="1.1" id="Layer_1" xmlns="http://www.w3.org/2000/svg" xmlns:xlink="http://www.w3.org/1999/xlink" x="0px" y="0px"
	 width="512px" height="512px" viewBox="0 0 512 512" style="enable-background:new 0 0 512 512;" xml:space="preserve">
<path d="M444.684,194.937c0-2.112-0.341-4.189-1.015-6.178L404.395,51.198c-2.348-8.222-9.959-13.965-18.51-13.965h-259.82
	c-8.551,0-16.163,5.743-18.511,13.965L68.026,189.653c-0.564,1.976-0.801,4.046-0.706,6.154l0.011,0
	c-0.048,5.178-0.084,37.854-0.079,257.46c0,11.855,9.645,21.5,21.5,21.5h334.496c11.854,0,21.5-9.645,21.5-21.501
	C444.748,453.265,444.684,195.333,444.684,194.937z M114.988,173.604c-0.944-1.252-1.247-2.875-0.816-4.384l25.681-89.954
	c0.613-2.147,2.575-3.627,4.808-3.627h87.177c2.761,0,5,2.239,5,5v89.954c0,2.761-2.239,5-5,5H118.98
	C117.411,175.593,115.934,174.857,114.988,173.604z M297.583,259.57h-83.167c-7.146,0-12.938-5.792-12.938-12.938
	s5.792-12.938,12.938-12.938h83.167c7.146,0,12.938,5.792,12.938,12.938S304.729,259.57,297.583,259.57z M397.563,173.604
	c-0.945,1.252-2.423,1.989-3.992,1.989H280.714c-2.761,0-5-2.239-5-5V80.64c0-2.761,2.239-5,5-5h87.176
	c2.233,0,4.195,1.48,4.808,3.627l25.682,89.954C398.811,170.729,398.508,172.352,397.563,173.604z"/>
</svg>
