<?xml version="1.0" encoding="iso-8859-1"?>
<!-- Generator: Adobe Illustrator 16.0.0, SVG Export Plug-In . SVG Version: 6.00 Build 0)  -->
<!DOCTYPE svg PUBLIC "-//W3C//DTD SVG 1.1//EN" "http://www.w3.org/Graphics/SVG/1.1/DTD/svg11.dtd">
<svg version="1.1" id="Layer_1" xmlns="http://www.w3.org/2000/svg" xmlns:xlink="http://www.w3.org/1999/xlink" x="0px" y="0px"
	 width="512px" height="512px" viewBox="0 0 512 512" style="enable-background:new 0 0 512 512;" xml:space="preserve">
<g>
	<path d="M171.881,284.528c11.286,0,22.195-0.729,32.518-2.085V169.294c-10.322-1.356-21.232-2.085-32.518-2.085
		c-64.441,0-116.681,23.693-116.681,52.921v11.477C55.2,260.834,107.44,284.528,171.881,284.528z"/>
	<path d="M171.881,343.611c11.286,0,22.195-0.729,32.518-2.085v-33.166c-10.325,1.357-21.229,2.095-32.518,2.095
		c-56.25,0-103.199-18.053-114.227-42.082c-1.606,3.5-2.454,7.124-2.454,10.839v11.477C55.2,319.918,107.44,343.611,171.881,343.611
		z"/>
	<path d="M204.398,370.023v-2.579c-10.325,1.357-21.229,2.095-32.518,2.095c-56.25,0-103.199-18.053-114.227-42.082
		c-1.606,3.5-2.454,7.124-2.454,10.839v11.477c0,29.228,52.24,52.921,116.681,52.921c12.887,0,25.282-0.95,36.873-2.7
		c-2.873-5.877-4.355-12.075-4.355-18.496V370.023z"/>
	<path d="M340.119,77.579c-64.441,0-116.681,23.693-116.681,52.921v11.477c0,29.228,52.24,52.921,116.681,52.921
		c64.441,0,116.681-23.693,116.681-52.921V130.5C456.8,101.272,404.56,77.579,340.119,77.579z"/>
	<path d="M340.119,220.826c-56.25,0-103.199-18.053-114.227-42.082c-1.606,3.499-2.454,7.123-2.454,10.839v11.477
		c0,29.228,52.24,52.921,116.681,52.921c64.441,0,116.681-23.693,116.681-52.921v-11.477c0-3.716-0.848-7.34-2.454-10.839
		C443.318,202.773,396.369,220.826,340.119,220.826z"/>
	<path d="M340.119,279.91c-56.25,0-103.199-18.053-114.227-42.082c-1.606,3.499-2.454,7.123-2.454,10.839v11.477
		c0,29.228,52.24,52.921,116.681,52.921c64.441,0,116.681-23.693,116.681-52.921v-11.477c0-3.716-0.848-7.34-2.454-10.839
		C443.318,261.857,396.369,279.91,340.119,279.91z"/>
	<path d="M340.119,342.182c-56.25,0-103.199-18.053-114.227-42.082c-1.606,3.5-2.454,7.124-2.454,10.839v11.477
		c0,29.228,52.24,52.921,116.681,52.921c64.441,0,116.681-23.693,116.681-52.921v-11.477c0-3.716-0.848-7.34-2.454-10.839
		C443.318,324.128,396.369,342.182,340.119,342.182z"/>
	<path d="M340.119,401.266c-56.25,0-103.199-18.053-114.227-42.082c-1.606,3.5-2.454,7.125-2.454,10.839V381.5
		c0,29.228,52.24,52.921,116.681,52.921c64.441,0,116.681-23.693,116.681-52.921v-11.477c0-3.715-0.848-7.34-2.454-10.839
		C443.318,383.212,396.369,401.266,340.119,401.266z"/>
</g>
</svg>
