<?xml version="1.0" encoding="iso-8859-1"?>
<!-- Generator: Adobe Illustrator 16.0.0, SVG Export Plug-In . SVG Version: 6.00 Build 0)  -->
<!DOCTYPE svg PUBLIC "-//W3C//DTD SVG 1.1//EN" "http://www.w3.org/Graphics/SVG/1.1/DTD/svg11.dtd">
<svg version="1.1" id="Layer_1" xmlns="http://www.w3.org/2000/svg" xmlns:xlink="http://www.w3.org/1999/xlink" x="0px" y="0px"
	 width="512px" height="512px" viewBox="0 0 512 512" style="enable-background:new 0 0 512 512;" xml:space="preserve">
<g>
	<path d="M463.272,256c0-90.025-72.979-163.004-163.006-163.004c-10.067,0-19.918,0.919-29.48,2.665
		C346.739,109.537,404.313,176.042,404.313,256c0,79.959-57.573,146.464-133.526,160.34c9.563,1.745,19.413,2.664,29.48,2.664
		C390.293,419.004,463.272,346.025,463.272,256z"/>
	<path d="M364.349,256c0-87.157-70.655-157.81-157.813-157.81C119.38,98.19,48.728,168.843,48.728,256
		c0,87.158,70.652,157.811,157.809,157.811C293.693,413.811,364.349,343.158,364.349,256z M238.217,341.447
		c0,6.455-5.231,11.688-11.687,11.688h-21.528c-6.454,0-11.688-5.232-11.688-11.688V210.273l-13.323,7.193
		c-3.171,1.711-6.953,1.866-10.251,0.417c-3.299-1.448-5.743-4.336-6.631-7.829l-4.254-16.765
		c-1.32-5.209,1.078-10.644,5.814-13.178l37.109-19.862c1.695-0.909,3.59-1.384,5.515-1.384h19.236
		c6.455,0,11.687,5.233,11.687,11.688V341.447z"/>
</g>
</svg>
