<?xml version="1.0" encoding="iso-8859-1"?>
<!-- Generator: Adobe Illustrator 16.0.0, SVG Export Plug-In . SVG Version: 6.00 Build 0)  -->
<!DOCTYPE svg PUBLIC "-//W3C//DTD SVG 1.1//EN" "http://www.w3.org/Graphics/SVG/1.1/DTD/svg11.dtd">
<svg version="1.1" id="Layer_1" xmlns="http://www.w3.org/2000/svg" xmlns:xlink="http://www.w3.org/1999/xlink" x="0px" y="0px"
	 width="512px" height="512px" viewBox="0 0 512 512" style="enable-background:new 0 0 512 512;" xml:space="preserve">
<g>
	<path d="M386.294,256c0-73.087-59.249-132.335-132.336-132.335c-8.172,0-16.17,0.746-23.933,2.164
		C291.687,137.093,338.428,191.086,338.428,256c0,64.915-46.741,118.907-108.403,130.172c7.763,1.417,15.761,2.164,23.933,2.164
		C327.046,388.335,386.294,329.087,386.294,256z"/>
	<path d="M329.917,123.665c-8.172,0-16.17,0.746-23.933,2.164C367.646,137.093,414.387,191.086,414.387,256
		c0,64.915-46.741,118.907-108.403,130.172c7.763,1.417,15.761,2.164,23.933,2.164c73.088,0,132.336-59.249,132.336-132.335
		S403.005,123.665,329.917,123.665z"/>
	<path d="M305.984,256c0-70.758-57.362-128.119-128.121-128.119c-70.757,0-128.116,57.36-128.116,128.119
		c0,70.759,57.359,128.119,128.116,128.119C248.622,384.119,305.984,326.759,305.984,256z M203.584,325.37
		c0,5.24-4.248,9.488-9.488,9.488h-17.478c-5.24,0-9.489-4.248-9.489-9.488V218.876l-10.816,5.84
		c-2.574,1.389-5.645,1.514-8.322,0.338c-2.678-1.175-4.664-3.52-5.383-6.355l-3.453-13.611c-1.072-4.229,0.875-8.642,4.72-10.699
		l30.127-16.125c1.376-0.738,2.915-1.123,4.477-1.123h15.618c5.24,0,9.488,4.248,9.488,9.488V325.37z"/>
</g>
</svg>
