<?xml version="1.0" encoding="iso-8859-1"?>
<!-- Generator: Adobe Illustrator 16.0.0, SVG Export Plug-In . SVG Version: 6.00 Build 0)  -->
<!DOCTYPE svg PUBLIC "-//W3C//DTD SVG 1.1//EN" "http://www.w3.org/Graphics/SVG/1.1/DTD/svg11.dtd">
<svg version="1.1" id="Layer_1" xmlns="http://www.w3.org/2000/svg" xmlns:xlink="http://www.w3.org/1999/xlink" x="0px" y="0px"
	 width="512px" height="512px" viewBox="0 0 512 512" style="enable-background:new 0 0 512 512;" xml:space="preserve">
<g>
	<path d="M446.452,102.414H65.548c-10.631,0-19.246,8.617-19.246,19.246V390.34c0,10.63,8.615,19.246,19.246,19.246h380.904
		c10.631,0,19.246-8.616,19.246-19.246V121.66C465.698,111.031,457.083,102.414,446.452,102.414z M433.942,377.831H78.058V243.984
		h355.885V377.831z M433.942,178.383H78.058v-44.214h355.885V178.383z"/>
	<path d="M319.965,353.35c9.609,0,18.252-4.138,24.241-10.729c5.991,6.591,14.634,10.729,24.242,10.729
		c18.087,0,32.75-14.663,32.75-32.75c0-18.087-14.663-32.75-32.75-32.75c-9.608,0-18.251,4.138-24.242,10.728
		c-5.989-6.59-14.632-10.728-24.241-10.728c-18.087,0-32.75,14.663-32.75,32.75C287.215,338.687,301.878,353.35,319.965,353.35z"/>
</g>
</svg>
