<?xml version="1.0" encoding="iso-8859-1"?>
<!-- Generator: Adobe Illustrator 16.0.0, SVG Export Plug-In . SVG Version: 6.00 Build 0)  -->
<!DOCTYPE svg PUBLIC "-//W3C//DTD SVG 1.1//EN" "http://www.w3.org/Graphics/SVG/1.1/DTD/svg11.dtd">
<svg version="1.1" id="Layer_1" xmlns="http://www.w3.org/2000/svg" xmlns:xlink="http://www.w3.org/1999/xlink" x="0px" y="0px"
	 width="512px" height="512px" viewBox="0 0 512 512" style="enable-background:new 0 0 512 512;" xml:space="preserve">
<g>
	<path d="M443.49,66.084H68.51c-8.284,0-15,6.716-15,15v104.234c0,8.284,6.716,15,15,15h32.626l4.666-30H83.51V96.084h344.98v74.234
		h-22.293c1.556,10,3.11,20,4.666,30h32.628c8.284,0,15-6.716,15-15V81.084C458.49,72.8,451.774,66.084,443.49,66.084z"/>
	<path d="M423.423,368.936c-12.311-79.176-24.62-158.351-36.939-237.523c-2.012-12.939-12.607-22.696-24.646-22.696l-80.438-0.001
		l-131.238,0.001c-12.039,0-22.635,9.757-24.647,22.696l-17.146,110.255C99.194,300.648,90.021,359.63,80.854,418.61
		c-1.042,6.697,0.875,13.474,5.259,18.593c4.743,5.537,11.938,8.713,19.738,8.713l110.108-0.001l190.188,0.001
		c7.801,0,14.995-3.176,19.738-8.714c4.384-5.118,6.301-11.895,5.259-18.592L423.423,368.936z M246.475,415.915H215.96
		l-104.327,0.001c8.789-56.547,17.584-113.092,26.379-169.639l16.728-107.562l94.31-0.001
		C248.186,231.114,247.34,323.515,246.475,415.915z M343.591,415.915c-7.896-92.398-15.771-184.801-23.667-277.2l37.335,0.001
		c12.18,78.274,24.35,156.553,36.52,234.828l6.588,42.372L343.591,415.915z"/>
</g>
</svg>
