<?xml version="1.0" encoding="iso-8859-1"?>
<!-- Generator: Adobe Illustrator 16.0.0, SVG Export Plug-In . SVG Version: 6.00 Build 0)  -->
<!DOCTYPE svg PUBLIC "-//W3C//DTD SVG 1.1//EN" "http://www.w3.org/Graphics/SVG/1.1/DTD/svg11.dtd">
<svg version="1.1" id="Layer_1" xmlns="http://www.w3.org/2000/svg" xmlns:xlink="http://www.w3.org/1999/xlink" x="0px" y="0px"
	 width="512px" height="512px" viewBox="0 0 512 512" style="enable-background:new 0 0 512 512;" xml:space="preserve">
<path d="M443.094,437.764c-21.022-42.096-39.688-81.624-37.215-102.68c2.361-20.124-5.47-41.442-17.117-62.436
	c4.769-2.618,8.002-7.684,8.002-13.507V60.105c0-8.505-6.894-15.4-15.401-15.4H76.574c-8.505,0-15.399,6.895-15.399,15.4v199.037
	c0,8.506,6.894,15.4,15.399,15.4h82.552c0.403,6.162,5.959,14.606,19.42,22.682c23.866,14.32-39.839,72.591,117.769,87.207
	c10.551,22.219,29.389,74.799,29.389,74.799c1.433,4.787,5.835,8.066,10.831,8.066h102.984c3.903,0,7.528-2.012,9.592-5.322
	c2.065-3.31,2.277-7.451,0.563-10.955C447.681,446.949,445.455,442.49,443.094,437.764z M86.585,70.116h284.768v35.378H86.585
	V70.116z M86.585,157.985h284.768v86.733c-4.337-6.414-8.768-12.731-13.097-18.898c-7.574-10.79-14.727-20.981-20.586-30.561
	c-1.608-2.63-3.271-5.676-4.881-8.623c-3.511-6.434-7.227-13.036-10.65-16.886c-2.176-2.447-5.254-3.845-8.578-3.792
	c-3.274,0.038-6.371,1.493-8.489,3.99c-1.596,1.879-3.228,4.319-4.852,7.25c-8.752,15.81-8.513,47.193,4.693,71.934H86.585V157.985z
	"/>
</svg>
