<?xml version="1.0" encoding="iso-8859-1"?>
<!-- Generator: Adobe Illustrator 16.0.0, SVG Export Plug-In . SVG Version: 6.00 Build 0)  -->
<!DOCTYPE svg PUBLIC "-//W3C//DTD SVG 1.1//EN" "http://www.w3.org/Graphics/SVG/1.1/DTD/svg11.dtd">
<svg version="1.1" id="Layer_1" xmlns="http://www.w3.org/2000/svg" xmlns:xlink="http://www.w3.org/1999/xlink" x="0px" y="0px"
	 width="512px" height="512px" viewBox="0 0 512 512" style="enable-background:new 0 0 512 512;" xml:space="preserve">
<g>
	<path d="M465.574,231.203c-4.75-5.725-11.803-9.037-19.24-9.037H164.869l-2.73-14.188c-1.742-9.059-8.332-16.421-17.143-19.154
		l-71.917-22.307c-13.186-4.09-27.194,3.283-31.284,16.472c-4.09,13.187,3.284,27.193,16.472,31.284l57.604,17.867l43.904,192.631
		c1.529,8.148,6.91,14.746,14.044,18.062c-0.212,1.713-0.333,3.452-0.333,5.221c0,23.348,18.994,42.343,42.342,42.343
		s42.342-18.995,42.342-42.343c0-0.975-0.045-1.938-0.109-2.896h66.844c-0.066,0.959-0.111,1.922-0.111,2.896
		c0,23.348,18.995,42.343,42.343,42.343s42.343-18.995,42.343-42.343c0-1.044-0.052-2.075-0.126-3.101
		c10.698-1.296,19.521-9.364,21.552-20.182l40-172.99C472.277,244.47,470.323,236.928,465.574,231.203z M215.828,468.675
		c-11.371,0-20.621-9.251-20.621-20.622c0-11.37,9.25-20.621,20.621-20.621s20.621,9.251,20.621,20.621
		C236.449,459.424,227.199,468.675,215.828,468.675z M367.136,468.675c-11.37,0-20.622-9.251-20.622-20.622
		c0-11.37,9.252-20.621,20.622-20.621s20.622,9.251,20.622,20.621C387.758,459.424,378.506,468.675,367.136,468.675z
		 M381.667,382.892H210.333c-8.284,0-15-6.716-15-15s6.716-15,15-15h171.334c8.284,0,15,6.716,15,15
		S389.951,382.892,381.667,382.892z M381.667,302.892H210.333c-8.284,0-15-6.716-15-15s6.716-15,15-15h171.334
		c8.284,0,15,6.716,15,15S389.951,302.892,381.667,302.892z"/>
	<path d="M321.477,25.568c-2.643-2.643-6.105-3.964-9.569-3.964s-6.927,1.321-9.569,3.964l-54.866,54.866
		c-3.871,3.871-5.029,9.692-2.935,14.749c2.095,5.058,7.03,8.354,12.504,8.354h34.866v78.834c0,11.046,8.954,20,20,20
		s20-8.954,20-20v-78.834h34.866c5.474,0,10.409-3.297,12.504-8.354c2.095-5.057,0.937-10.878-2.935-14.749L321.477,25.568z"/>
</g>
</svg>
