<?xml version="1.0" encoding="iso-8859-1"?>
<!-- Generator: Adobe Illustrator 16.0.0, SVG Export Plug-In . SVG Version: 6.00 Build 0)  -->
<!DOCTYPE svg PUBLIC "-//W3C//DTD SVG 1.1//EN" "http://www.w3.org/Graphics/SVG/1.1/DTD/svg11.dtd">
<svg version="1.1" id="Layer_1" xmlns="http://www.w3.org/2000/svg" xmlns:xlink="http://www.w3.org/1999/xlink" x="0px" y="0px"
	 width="512px" height="512px" viewBox="0 0 512 512" style="enable-background:new 0 0 512 512;" xml:space="preserve">
<g>
	<path d="M371.009,210.88c0.616-1.907,0.113-3.998-1.304-5.415c-1.417-1.417-3.508-1.92-5.414-1.303l-18.95,6.126
		c-20.118-11.534-46.223-8.711-63.408,8.473c-20.566,20.567-20.566,53.911,0,74.478c20.566,20.565,53.911,20.565,74.477,0
		c17.185-17.186,20.007-43.29,8.474-63.409L371.009,210.88z"/>
	<path d="M455,98.15H57c-11.046,0-20,8.954-20,20V393.85c0,11.045,8.954,20,20,20h398c11.046,0,20-8.955,20-20V118.15
		C475,107.104,466.046,98.15,455,98.15z M87.759,351.526c0,11.045-8.954,20-20,20h-5.026v-94.495h5.026c11.046,0,20,8.955,20,20
		V351.526z M87.759,218.033c0,11.045-8.954,20-20,20h-5.026v-94.495h5.026c11.046,0,20,8.955,20,20V218.033z M319.17,349.999
		c-51.915,0-93.999-42.084-93.999-93.999s42.084-93.999,93.999-93.999c51.914,0,93.999,42.084,93.999,93.999
		S371.084,349.999,319.17,349.999z"/>
</g>
</svg>
