<?xml version="1.0" encoding="iso-8859-1"?>
<!-- Generator: Adobe Illustrator 16.0.0, SVG Export Plug-In . SVG Version: 6.00 Build 0)  -->
<!DOCTYPE svg PUBLIC "-//W3C//DTD SVG 1.1//EN" "http://www.w3.org/Graphics/SVG/1.1/DTD/svg11.dtd">
<svg version="1.1" id="Layer_1" xmlns="http://www.w3.org/2000/svg" xmlns:xlink="http://www.w3.org/1999/xlink" x="0px" y="0px"
	 width="512px" height="512px" viewBox="0 0 512 512" style="enable-background:new 0 0 512 512;" xml:space="preserve">
<g>
	<path d="M310.113,284.687c-5.043,0-8.816,3.714-10.618,5.928c-4.025,4.952-6.336,12.059-6.336,19.499
		c0,7.441,2.311,14.548,6.336,19.5c1.802,2.214,5.575,5.928,10.618,5.928c5.044,0,8.817-3.714,10.618-5.928
		c4.026-4.952,6.336-12.059,6.336-19.5c0-7.44-2.31-14.547-6.336-19.499C318.931,288.4,315.157,284.687,310.113,284.687z"/>
	<path d="M201.887,227.313c5.044,0,8.816-3.714,10.618-5.928c4.026-4.952,6.336-12.059,6.336-19.5s-2.31-14.547-6.336-19.499
		c-1.802-2.214-5.574-5.928-10.618-5.928s-8.816,3.714-10.618,5.928c-4.026,4.952-6.336,12.058-6.336,19.499s2.31,14.548,6.336,19.5
		C193.07,223.6,196.843,227.313,201.887,227.313z"/>
	<path d="M470.792,244.54l-53.984-40.794l19.699-64.751c1.311-4.31,0.525-8.984-2.123-12.628c-2.648-3.643-6.854-5.833-11.357-5.916
		l-67.672-1.235L333.29,55.219c-1.469-4.262-4.855-7.587-9.143-8.98c-4.283-1.393-8.979-0.692-12.674,1.892l-55.475,38.814
		l-55.475-38.814c-3.693-2.583-8.387-3.285-12.674-1.892c-4.289,1.393-7.672,4.718-9.143,8.98l-22.064,63.996l-67.672,1.236
		c-4.502,0.083-8.707,2.272-11.355,5.916c-2.648,3.644-3.436,8.319-2.125,12.628l19.701,64.75L41.208,244.54
		c-3.594,2.715-5.705,6.958-5.705,11.46c0,4.503,2.111,8.746,5.705,11.461l53.984,40.794l-19.699,64.751
		c-1.311,4.31-0.523,8.984,2.125,12.628c2.648,3.643,6.854,5.833,11.355,5.916l67.672,1.236l22.064,63.996
		c1.469,4.262,4.854,7.587,9.141,8.98c4.285,1.393,8.98,0.692,12.674-1.893l55.475-38.814l55.477,38.815
		c2.443,1.709,5.324,2.595,8.236,2.595c1.488,0,2.986-0.231,4.438-0.703c4.287-1.393,7.672-4.718,9.141-8.98l22.064-63.996
		l67.674-1.237c4.502-0.083,8.707-2.272,11.355-5.916s3.436-8.318,2.125-12.628l-19.701-64.749l53.984-40.795
		c3.594-2.715,5.705-6.958,5.705-11.461C476.497,251.497,474.386,247.254,470.792,244.54z M201.887,156.513
		c20.38,0,36.901,20.314,36.901,45.374c0,25.06-16.521,45.375-36.901,45.375s-36.901-20.315-36.901-45.375
		C164.985,176.827,181.507,156.513,201.887,156.513z M199.541,355.682c-2.307,3.209-6.047,5.125-10.005,5.125
		c-2.581,0-5.059-0.8-7.163-2.312c-5.509-3.957-6.771-11.658-2.813-17.167l132.9-185.01c2.306-3.209,6.046-5.125,10.005-5.125
		c2.58,0,5.057,0.8,7.162,2.312c5.509,3.957,6.771,11.658,2.813,17.167L199.541,355.682z M310.113,355.487
		c-20.38,0-36.901-20.314-36.901-45.375c0-25.059,16.521-45.374,36.901-45.374s36.901,20.315,36.901,45.374
		C347.015,335.173,330.493,355.487,310.113,355.487z"/>
</g>
</svg>
