<?xml version="1.0" encoding="iso-8859-1"?>
<!-- Generator: Adobe Illustrator 16.0.0, SVG Export Plug-In . SVG Version: 6.00 Build 0)  -->
<!DOCTYPE svg PUBLIC "-//W3C//DTD SVG 1.1//EN" "http://www.w3.org/Graphics/SVG/1.1/DTD/svg11.dtd">
<svg version="1.1" id="Layer_1" xmlns="http://www.w3.org/2000/svg" xmlns:xlink="http://www.w3.org/1999/xlink" x="0px" y="0px"
	 width="512px" height="512px" viewBox="0 0 512 512" style="enable-background:new 0 0 512 512;" xml:space="preserve">
<g>
	<path d="M263.695,238.298c-6.488,0-11.867,2.237-16.447,6.838c-4.017,4.04-6.223,8.668-6.706,14.09l33.521-18.596
		C270.95,239.066,267.523,238.298,263.695,238.298z"/>
	<path d="M350.111,238.298c-6.488,0-11.867,2.237-16.447,6.838c-3.844,3.867-6.031,8.273-6.634,13.397l33.279-17.988
		C357.24,239.038,353.869,238.298,350.111,238.298z"/>
	<path d="M454.622,293.079c14.26-9.203,30.422-19.634,30.422-37.079s-16.162-27.875-30.422-37.079
		c-4.9-3.163-13.85-8.94-15.918-11.971c0.156-3.817,5.426-14.132,8.008-19.189c7.576-14.827,16.16-31.631,7.66-46.324
		c-8.592-14.85-27.598-15.796-44.365-16.632c-5.99-0.298-16.947-0.844-20.277-2.536c-1.691-3.33-2.236-14.286-2.535-20.277
		c-0.836-16.768-1.783-35.772-16.633-44.364c-4.02-2.326-8.594-3.506-13.592-3.506c-10.879,0-21.988,5.676-32.732,11.165
		c-6.404,3.271-15.1,7.714-19.217,7.99c-3.037-2.104-8.789-11.014-11.941-15.899c-9.203-14.26-19.635-30.422-37.078-30.422
		c-17.445,0-27.877,16.162-37.08,30.421c-3.156,4.891-8.916,13.814-11.951,15.906c-4.014-0.233-12.77-4.707-19.209-7.996
		c-10.742-5.489-21.852-11.165-32.73-11.165c-4.998,0-9.572,1.18-13.592,3.506c-14.85,8.591-15.797,27.596-16.633,44.364
		c-0.297,5.992-0.844,16.948-2.535,20.278c-3.33,1.691-14.285,2.237-20.277,2.536c-16.768,0.835-35.771,1.782-44.363,16.631
		c-8.502,14.693,0.084,31.498,7.658,46.325c2.582,5.056,7.854,15.372,8.008,19.189c-2.066,3.031-11.018,8.808-15.918,11.971
		c-14.26,9.203-30.422,19.634-30.422,37.079s16.162,27.875,30.422,37.079c4.9,3.163,13.852,8.94,15.918,11.971
		c-0.154,3.817-5.426,14.133-8.008,19.189c-7.576,14.826-16.16,31.63-7.66,46.323c8.592,14.85,27.598,15.796,44.365,16.632
		c5.99,0.298,16.947,0.844,20.277,2.536c1.691,3.33,2.236,14.286,2.535,20.278c0.836,16.767,1.781,35.772,16.633,44.364
		c4.02,2.327,8.594,3.506,13.592,3.506c10.879-0.001,21.988-5.676,32.73-11.165c6.404-3.271,15.1-7.714,19.217-7.99
		c3.039,2.103,8.791,11.014,11.943,15.9c9.203,14.259,19.635,30.421,37.08,30.421c17.443,0,27.875-16.162,37.078-30.421
		c3.156-4.891,8.916-13.814,11.951-15.906c4.014,0.233,12.771,4.707,19.211,7.996c10.742,5.488,21.852,11.164,32.73,11.164
		c4.998,0,9.57-1.18,13.592-3.506c14.85-8.592,15.795-27.596,16.631-44.364c0.299-5.991,0.844-16.946,2.535-20.277
		c3.33-1.691,14.285-2.237,20.277-2.536c16.768-0.835,35.773-1.782,44.365-16.632c8.5-14.693-0.084-31.498-7.66-46.324
		c-2.582-5.057-7.852-15.373-8.008-19.189C440.771,302.019,449.722,296.242,454.622,293.079z M169.787,186.631
		c0,5.129-4.159,9.287-9.287,9.287h-3.16c-4.897,0-8.842,1.8-11.727,5.349c-3.054,3.76-4.602,7.399-4.602,10.815v6.27h14.461
		c5.129,0,9.287,4.158,9.287,9.288v2.197c0,5.129-4.158,9.287-9.287,9.287h-14.461v56.344c0,5.13-4.16,9.288-9.288,9.288h-2.526
		c-5.129,0-9.287-4.158-9.287-9.288v-81.076c0-11.574,3.468-21.033,10.31-28.113c6.865-7.111,15.991-10.718,27.12-10.718h3.16
		c5.128,0,9.287,4.158,9.287,9.287V186.631z M214.209,237.516c-7.096,0.346-12.326,2.816-15.986,7.551
		c-4.102,5.304-6.181,11.6-6.181,18.712v31.688c0,5.13-4.159,9.288-9.287,9.288h-2.526c-5.127,0-9.283-4.153-9.287-9.279
		l-0.06-67.828c-0.002-2.465,0.975-4.829,2.718-6.572c1.741-1.744,4.104-2.724,6.569-2.724h2.586c4.222,0,7.786,2.817,8.915,6.676
		c6.612-4.924,13.797-7.686,21.432-8.225c2.574-0.19,5.101,0.713,6.987,2.469c1.885,1.757,2.955,4.218,2.955,6.794v2.173
		C223.044,233.193,219.157,237.274,214.209,237.516z M305.006,278.307c-2.141,5.337-5.481,10.278-9.928,14.686
		c-8.615,8.616-19.183,12.999-31.383,12.999c-12.197,0-22.764-4.367-31.406-12.982c-8.646-8.619-13.031-19.202-13.031-31.457
		c0-12.199,4.383-22.767,13.027-31.411c8.645-8.645,19.213-13.026,31.41-13.026c10.812,0,19.856,2.949,27.648,9.017
		c5.014,3.904,7.701,7.551,9.146,9.511c1.585,2.149,2.167,4.878,1.598,7.487c-0.569,2.609-2.232,4.848-4.569,6.144l-50.802,28.187
		c0.173,0.183,0.35,0.365,0.529,0.545c4.577,4.577,9.958,6.802,16.45,6.802c6.494,0,11.889-2.238,16.494-6.843
		c2.17-2.169,3.828-4.576,4.928-7.154c1.652-3.869,5.692-6.145,9.863-5.546l2.727,0.392c2.82,0.405,5.299,2.083,6.723,4.551
		C305.855,272.676,306.068,275.661,305.006,278.307z M391.422,278.307c-2.141,5.337-5.481,10.278-9.928,14.686
		c-8.615,8.616-19.183,12.999-31.383,12.999c-12.197,0-22.764-4.367-31.406-12.982c-8.646-8.619-13.031-19.202-13.031-31.457
		c0-12.199,4.383-22.767,13.027-31.411c8.645-8.645,19.213-13.026,31.41-13.026c10.15,0,18.824,2.781,27.295,8.754
		c5.131,3.618,7.56,7.044,9.011,9.093l0.488,0.68c1.595,2.164,2.173,4.912,1.587,7.534c-0.586,2.624-2.279,4.864-4.643,6.143
		l-49.344,26.704c-0.637,0.345-1.297,0.606-1.966,0.792c0.356,0.402,0.73,0.8,1.121,1.191c4.577,4.577,9.958,6.802,16.45,6.802
		c6.494,0,11.889-2.238,16.494-6.843c2.17-2.169,3.828-4.576,4.928-7.154c1.652-3.869,5.684-6.145,9.862-5.546l2.728,0.392
		c2.82,0.405,5.299,2.083,6.723,4.551C392.271,272.676,392.484,275.661,391.422,278.307z"/>
</g>
</svg>
