<?xml version="1.0" encoding="iso-8859-1"?>
<!-- Generator: Adobe Illustrator 16.0.0, SVG Export Plug-In . SVG Version: 6.00 Build 0)  -->
<!DOCTYPE svg PUBLIC "-//W3C//DTD SVG 1.1//EN" "http://www.w3.org/Graphics/SVG/1.1/DTD/svg11.dtd">
<svg version="1.1" id="Layer_1" xmlns="http://www.w3.org/2000/svg" xmlns:xlink="http://www.w3.org/1999/xlink" x="0px" y="0px"
	 width="512px" height="512px" viewBox="0 0 512 512" style="enable-background:new 0 0 512 512;" xml:space="preserve">
<path d="M476.798,158.396c-5.005-6.031-12.435-9.521-20.271-9.521h-20.86l4.734-4.733c1.641-1.642,2.563-3.867,2.563-6.188
	s-0.922-4.547-2.563-6.188l-48.673-48.673c-3.416-3.417-8.957-3.416-12.375,0.001l-56.886,56.887v-50.7
	c0-4.832-3.918-8.75-8.75-8.75H203.399c-4.832,0-8.75,3.918-8.75,8.75v59.511c0,0.028,0.004,0.056,0.004,0.083h-34.664
	l-2.876-14.948c-1.838-9.543-8.78-17.301-18.063-20.18L63.283,90.245c-13.892-4.309-28.649,3.46-32.96,17.354
	c-4.31,13.894,3.461,28.65,17.354,32.96l60.689,18.824l46.254,202.947c1.612,8.584,7.281,15.535,14.797,19.028
	c-0.223,1.805-0.352,3.638-0.352,5.501c0,24.598,20.013,44.609,44.61,44.609s44.61-20.012,44.61-44.609
	c0-1.027-0.047-2.042-0.117-3.052h70.424c-0.068,1.01-0.115,2.024-0.115,3.052c0,24.598,20.011,44.609,44.608,44.609
	c24.599,0,44.609-20.012,44.609-44.609c0-1.101-0.053-2.187-0.131-3.267c11.27-1.366,20.564-9.866,22.704-21.263l42.144-182.255
	C483.859,172.373,481.801,164.428,476.798,158.396z M213.677,408.585c-11.979,0-21.727-9.746-21.727-21.726
	s9.748-21.727,21.727-21.727c11.979,0,21.727,9.747,21.727,21.727S225.656,408.585,213.677,408.585z M373.087,408.585
	c-11.979,0-21.725-9.746-21.725-21.726s9.745-21.727,21.725-21.727c11.98,0,21.726,9.747,21.726,21.727
	S385.067,408.585,373.087,408.585z M388.396,318.208H207.888c-8.729,0-15.804-7.076-15.804-15.804s7.075-15.803,15.804-15.803
	h180.509c8.729,0,15.804,7.075,15.804,15.803S397.125,318.208,388.396,318.208z M388.396,233.924H207.888
	c-8.729,0-15.804-7.076-15.804-15.804s7.075-15.803,15.804-15.803h180.509c8.729,0,15.804,7.075,15.804,15.803
	S397.125,233.924,388.396,233.924z"/>
</svg>
