<?xml version="1.0" encoding="iso-8859-1"?>
<!-- Generator: Adobe Illustrator 16.0.0, SVG Export Plug-In . SVG Version: 6.00 Build 0)  -->
<!DOCTYPE svg PUBLIC "-//W3C//DTD SVG 1.1//EN" "http://www.w3.org/Graphics/SVG/1.1/DTD/svg11.dtd">
<svg version="1.1" id="Layer_1" xmlns="http://www.w3.org/2000/svg" xmlns:xlink="http://www.w3.org/1999/xlink" x="0px" y="0px"
	 width="512px" height="512px" viewBox="0 0 512 512" style="enable-background:new 0 0 512 512;" xml:space="preserve">
<g>
	<path d="M228.716,428.173c-6.124-4.595-12.371-10.065-18.551-16.245c-0.471-0.473-61.162-61.307-93.851-94.035
		c-2.761-2.764-6.653-4.079-10.526-3.553c-3.871,0.525-7.274,2.831-9.197,6.231c-3.799,6.715-5.324,12.845-4.532,18.218
		c1.358,9.223,9.004,18.481,20.035,29.511l65.832,66.31c11.021,11.021,20.251,18.64,29.478,20c0.929,0.137,1.893,0.206,2.866,0.206
		c5.283,0,11.204-2.04,17.6-6.063c3.483-2.191,5.665-5.956,5.833-10.067C233.873,434.574,232.008,430.643,228.716,428.173z"/>
	<path d="M383.167,273.674l-3.666-4.333c-0.991-1.187-1.974-2.337-2.955-3.458c-0.039-0.045-0.079-0.089-0.118-0.133
		c-2.854-3.171-6.052-6.531-9.506-9.984l-1.202-1.202c-0.088-0.088-0.178-0.175-0.269-0.26
		c-29.479-27.769-55.748-28.095-83.566-28.44c-17.806-0.22-34.624-0.428-52.622-7.072c-17.623-6.506-33.936-20.103-44.756-37.304
		c-10.137-16.115-13.78-33.249-9.747-45.828c0.144-0.45,0.323-0.949,0.532-1.488l17.321-17.32c9.779-9.78,9.779-25.693-0.001-35.474
		l-19.146-19.146c-2.344-2.344-5.523-3.661-8.839-3.661s-6.495,1.317-8.839,3.661L30.6,187.422
		c-2.344,2.344-3.661,5.524-3.661,8.839c0,3.315,1.317,6.495,3.661,8.839l19.146,19.145c4.738,4.738,11.038,7.348,17.737,7.348
		s12.999-2.609,17.737-7.347l15.548-15.548c8.873,16.078,10.264,31.474,11.499,45.147c1.27,14.042,2.187,24.188,10.401,32.402
		c26.045,26.046,105.997,106.186,106.503,106.695c18.564,18.563,34.996,27.587,50.233,27.587c1.48,0,2.969-0.087,4.42-0.259
		c13.298-1.568,26.964-10.003,44.312-27.352l39.107-39.108c21.308-21.307,30.253-34.843,30.874-46.722
		c0.481-9.199-4.327-20.029-14.698-33.108C383.337,273.877,383.253,273.774,383.167,273.674z"/>
	<path d="M481.4,186.036L356.21,60.845c-4.882-4.882-12.796-4.882-17.678,0L319.388,79.99c-9.781,9.781-9.781,25.695,0,35.476
		l5.708,5.708c-19.287,12.093-48.025,25.68-79.775,25.682c-9.262,0-18.341-1.195-27.029-3.564
		c-4.653-1.302-9.648,0.195-12.818,3.858c-3.222,3.723-3.958,8.99-1.882,13.453c5.202,11.181,17.484,26.528,34.978,32.987
		c13.652,5.041,28.898,5.23,43.643,5.413c30.422,0.376,68.283,0.845,108.288,42.371c2.396,2.488,5.663,3.828,9.004,3.828
		c1.349,0,2.709-0.219,4.029-0.668c4.59-1.563,7.861-5.641,8.393-10.46c0.908-8.217,2.338-15.192,4.45-21.619l10.405,10.404
		c4.738,4.738,11.038,7.347,17.739,7.347c6.699,0,12.998-2.609,17.736-7.348l19.145-19.145
		C486.282,198.832,486.282,190.917,481.4,186.036z"/>
</g>
</svg>
