<?xml version="1.0" encoding="iso-8859-1"?>
<!-- Generator: Adobe Illustrator 16.0.0, SVG Export Plug-In . SVG Version: 6.00 Build 0)  -->
<!DOCTYPE svg PUBLIC "-//W3C//DTD SVG 1.1//EN" "http://www.w3.org/Graphics/SVG/1.1/DTD/svg11.dtd">
<svg version="1.1" id="Layer_1" xmlns="http://www.w3.org/2000/svg" xmlns:xlink="http://www.w3.org/1999/xlink" x="0px" y="0px"
	 width="512px" height="512px" viewBox="0 0 512 512" style="enable-background:new 0 0 512 512;" xml:space="preserve">
<g>
	<path d="M461.34,120.322H50.66c-10.629,0-19.246,8.617-19.246,19.246v232.863c0,10.629,8.617,19.246,19.246,19.246h410.68
		c10.629,0,19.246-8.617,19.246-19.246V139.568C480.586,128.939,471.969,120.322,461.34,120.322z M448.829,359.922H63.171V152.079
		h385.658V359.922z"/>
	<path d="M183.663,336.164c4.063,0,8.029,0.076,11.985-1.051c6.854-1.951,12.893-6.766,16.246-13.063
		c1.868-3.505,2.811-7.254,3.093-11.14v-0.006c0.062-0.847,0.103-1.698,0.103-2.557V175.785h-39.512
		c-2.911,0-5.715,0.527-8.482,1.408c-7.412,2.357-13.682,8.563-16.417,15.794c-1.546,4.084-1.764,8.229-1.764,12.51v66.571
		c1.195-0.578,2.593-0.616,3.827-0.081c4.461,1.935,9.064,3.25,13.312,3.803c1.946,0.253,3.525,0.371,4.972,0.371
		c2.612,0,4.807-0.401,6.709-1.226c0.044-0.02,0.089-0.038,0.133-0.055c3.227-1.281,5.535-4.565,6.024-8.571l0.081-29.844
		c0-2.537,2.056-4.594,4.593-4.594h17.486c2.537,0,4.593,2.057,4.593,4.594v28.248c0,3.764-0.741,9.183-4.277,13.62
		c-4.469,5.61-11.687,7.965-16.955,8.953c-1.257,0.236-2.458,0.343-3.619,0.447c-0.496,0.044-0.996,0.088-1.51,0.144
		c-1.352,0.146-2.821,0.248-4.494,0.311c-1.964,0.075-3.561,0.108-5.023,0.108c-1.308,0-2.528-0.028-3.732-0.088
		c-5.247-0.257-10.688-0.888-17.633-2.045c-1.272-0.212-2.514-0.507-3.575-0.767c-0.321-0.079-0.621-0.2-0.91-0.34v51.106
		c5.822,0,11.644,0,17.465,0C172.141,336.164,177.9,336.164,183.663,336.164z"/>
	<path d="M298.812,231.713l34.286-0.006c2.381,0,4.372,0.06,6.389,0.354c3.324,0.484,7.956,1.864,11.138,5.681
		c0.03,0.035,0.058,0.071,0.088,0.106c3.454,4.405,3.718,10.489,0.673,15.502c-1.257,1.985-3.108,3.625-5.38,4.828
		c5.226,1.823,9.875,5.557,10.578,11.871c0.355,3.198-0.328,6.38-1.876,8.73c-1.134,1.701-2.532,3.547-4.446,4.58
		c-3.158,2.373-7.174,3.033-10.332,3.342c-1.163,0.114-2.421,0.167-3.964,0.167c-0.877,0-1.755-0.017-2.633-0.033
		c-0.845-0.016-1.689-0.032-2.527-0.032h-31.918c-0.721,0-1.394-0.18-2-0.476l0.05,49.859c5.801,0,11.604,0,17.404,0
		c5.763,0,11.525,0,17.288,0c3.703,0,7.448,0.18,11.063-0.773c6.979-1.842,13.175-6.27,16.787-12.572
		c2.541-4.435,3.604-9.28,3.604-14.355c0-2.112,0-4.223,0-6.334V181.541c0-1.929,0-3.812,0-5.74l-35.212-0.016
		c-4.292,0-8.493-0.062-12.629,1.307c-2.962,1.211-5.759,2.459-8.287,4.469c-2.95,2.335-5.377,5.277-7.129,8.606
		c-2.018,3.836-3.02,8.14-3.02,12.468l0.024,29.546C297.447,231.886,298.117,231.713,298.812,231.713z"/>
	<path d="M311.094,274.792l12.844,0.014c5.452,0,6.308-3.779,6.308-5.25c0-1.759-0.817-3.354-2.187-4.266
		c-1.163-0.801-2.525-0.955-4.364-0.955l-12.601,0.008V274.792z"/>
	<path d="M327.313,251.165c1.119-1.274,1.462-3.251,0.834-4.808c-0.592-1.445-1.864-2.584-3.151-2.807
		c-0.127-0.022-0.913-0.21-2.717-0.169h-11.186v9.354l10.835,0.015c0.472,0,0.947-0.002,1.38-0.01
		C324.551,252.739,326.173,252.466,327.313,251.165z"/>
	<path d="M222.884,237.944c3.313-2.313,6.996-4.037,11.24-5.246c2.598-0.74,5.104-1.15,7.759-1.584l1.178-0.195
		c2.946-0.491,5.951-0.546,8.855-0.599c3.013-0.054,5.977-0.021,8.664,0.1c5.547,0.25,10.759,1.192,16.274,2.19l1.252,0.226
		c0.334,0.061,0.682,0.128,1.039,0.204c2.126,0.447,3.646,2.323,3.646,4.495v4.726c0,1.548-0.779,2.992-2.073,3.841
		c-1.295,0.85-2.932,0.988-4.35,0.372c-4.072-1.769-8.433-2.985-12.964-3.615c-3.048-0.423-6.264-0.482-8.956-0.166
		c-3.42,0.405-6.138,1.254-8.308,2.597c-0.062,0.038-0.122,0.073-0.185,0.108c-2.961,1.648-5.427,5.112-6.282,8.825
		c-1.184,4.862-0.61,10.164,1.48,13.89c1.694,3.015,4.588,5.323,8.376,6.678l0.026,0.008c4.215,1.134,7.81,1.478,11.183,1.068
		c5.799-0.705,10.864-2.031,15.487-4.055c1.423-0.622,3.06-0.485,4.356,0.363c1.297,0.849,2.079,2.294,2.079,3.844v4.813
		c0,2.119-1.45,3.963-3.508,4.464c-5.26,1.277-10.485,1.989-15.35,2.567c-2.987,0.354-6.053,0.354-8.757,0.354l-2.368,0.004
		c0,0-0.005,0-0.008,0c-2.407,0-4.426-0.041-6.46-0.24c-2.607-0.255-5.699-0.608-8.865-1.289c-3.432-0.738-6.72-1.893-10.058-3.527
		c-1.343-0.657-2.879-1.474-4.384-2.517l0.03,55.56c5.793,0,11.584,0,17.378,0c5.752,0,11.502,0,17.255,0
		c3.847,0,7.706,0.169,11.459-0.847c6.21-1.85,11.408-5.312,15.274-10.548c2.621-4.096,4.414-8.368,4.797-13.277
		c0.071-0.9,0.082-1.798,0.082-2.698c0-1.91,0-3.819,0-5.728V182.486c0-2.233,0-4.467,0-6.701h-18.019c-5.766,0-11.531,0-17.297,0
		c-4.233,0-8.455-0.102-12.519,1.308c-7.653,2.655-14.257,8.563-16.896,16.36c-1.813,4.647-1.585,9.6-1.585,14.479L222.884,237.944z
		"/>
</g>
</svg>
