<?xml version="1.0" encoding="iso-8859-1"?>
<!-- Generator: Adobe Illustrator 16.0.0, SVG Export Plug-In . SVG Version: 6.00 Build 0)  -->
<!DOCTYPE svg PUBLIC "-//W3C//DTD SVG 1.1//EN" "http://www.w3.org/Graphics/SVG/1.1/DTD/svg11.dtd">
<svg version="1.1" id="Layer_1" xmlns="http://www.w3.org/2000/svg" xmlns:xlink="http://www.w3.org/1999/xlink" x="0px" y="0px"
	 width="512px" height="512px" viewBox="0 0 512 512" style="enable-background:new 0 0 512 512;" xml:space="preserve">
<g>
	<path d="M461.34,120.322H50.662c-10.631,0-19.246,8.617-19.246,19.246v232.864c0,10.629,8.615,19.246,19.246,19.246H461.34
		c10.629,0,19.244-8.617,19.244-19.246V139.568C480.584,128.939,471.969,120.322,461.34,120.322z M448.83,359.922H63.172V152.078
		H448.83V359.922z"/>
	<path d="M221.127,325.747c12.705,0,24.615-3.398,34.873-9.333c10.26,5.935,22.168,9.333,34.875,9.333
		c38.52,0,69.746-31.227,69.746-69.747s-31.227-69.747-69.746-69.747c-12.707,0-24.615,3.398-34.875,9.333
		c-10.258-5.935-22.168-9.333-34.873-9.333c-38.52,0-69.746,31.227-69.746,69.747S182.607,325.747,221.127,325.747z
		 M275.281,212.049c4.879-1.736,10.125-2.69,15.594-2.69c25.717,0,46.639,20.923,46.639,46.641s-20.922,46.641-46.639,46.641
		c-5.469,0-10.715-0.954-15.594-2.69c9.746-11.996,15.594-27.29,15.594-43.951S285.027,224.044,275.281,212.049z"/>
</g>
</svg>
