<?xml version="1.0" encoding="iso-8859-1"?>
<!-- Generator: Adobe Illustrator 16.0.0, SVG Export Plug-In . SVG Version: 6.00 Build 0)  -->
<!DOCTYPE svg PUBLIC "-//W3C//DTD SVG 1.1//EN" "http://www.w3.org/Graphics/SVG/1.1/DTD/svg11.dtd">
<svg version="1.1" id="Layer_1" xmlns="http://www.w3.org/2000/svg" xmlns:xlink="http://www.w3.org/1999/xlink" x="0px" y="0px"
	 width="512px" height="512px" viewBox="0 0 512 512" style="enable-background:new 0 0 512 512;" xml:space="preserve">
<g>
	<g>
		<path d="M284.904,325.814c-1.587-1.739-3.595-3.038-5.67-4.121c-4.517-2.357-9.459-3.786-14.365-5.076v38.016
			c7.963-0.9,17.105-3.79,21.286-11.224l0,0c1.996-3.55,2.393-7.914,1.58-11.867C287.295,329.401,286.384,327.435,284.904,325.814z"
			/>
	</g>
	<g>
		<path d="M286.114,343.483c0.016-0.028,0.025-0.044,0.042-0.074l0,0C286.141,343.434,286.128,343.458,286.114,343.483z"/>
	</g>
	<g>
		<path d="M227.519,265.042c-1.369,1.999-2.228,4.27-2.465,6.684c-0.237,2.419-0.104,5.11,0.815,7.387
			c0.875,2.169,2.708,3.772,4.6,5.061c2.123,1.444,4.458,2.572,6.836,3.528c1.995,0.803,4.239,1.572,6.658,2.314v-34.4
			C237.852,256.92,231.175,259.704,227.519,265.042z"/>
	</g>
	<g>
		<path d="M286.313,343.129c-0.05,0.089-0.103,0.182-0.157,0.28l0,0C286.219,343.295,286.267,343.211,286.313,343.129z"/>
	</g>
	<g>
		<path d="M286.513,342.773C286.526,342.749,286.528,342.747,286.513,342.773L286.513,342.773z"/>
	</g>
	<g>
		<path d="M278.262,135.979c32.33-27.158,53.931-88.341,40.637-91.017c-17.664-3.557-56.022,12.04-74.562,14.788
			c-26.296,3.175-54.936-28.515-71.012-10.851c-13.071,14.362,9.371,66.592,44.482,89.346
			c-104.751,51.484-251.987,309.938,4.874,328.691C578.092,492.885,400.125,186.149,278.262,135.979z M308.786,339.808
			c-1.093,10.076-6.433,19.188-14.415,25.374c-8.428,6.532-18.999,9.57-29.502,10.421v11.133c0,2.978-1.301,5.86-3.531,7.832
			c-3.066,2.711-7.569,3.38-11.289,1.667c-3.673-1.691-6.086-5.457-6.086-9.499v-12.168c-1.801-0.342-3.589-0.749-5.356-1.235
			c-9.816-2.697-18.921-7.954-25.572-15.732c-3.313-3.877-6.014-8.277-7.882-13.026c-0.488-1.241-0.923-2.504-1.304-3.783
			c-0.345-1.157-0.701-2.333-0.824-3.539c-0.207-2.023,0.194-4.087,1.137-5.889c1.938-3.707,6.022-5.946,10.192-5.574
			c4.104,0.365,7.701,3.212,8.993,7.124c0.398,1.205,0.668,2.441,1.115,3.632c0.443,1.184,0.978,2.335,1.607,3.431
			c1.242,2.158,2.798,4.148,4.59,5.875c3.694,3.558,8.399,5.872,13.304,7.248v-41.362c-9.591-2.484-19.491-5.691-27.411-11.848
			c-3.849-2.994-7.115-6.714-9.254-11.117c-2.257-4.648-3.192-9.825-3.23-14.966c-0.039-5.221,0.953-10.397,3.131-15.153
			c2.04-4.454,4.977-8.453,8.578-11.768c7.7-7.087,17.928-11.04,28.187-12.492v-0.91v-10.647c0-2.978,1.301-5.86,3.531-7.832
			c3.066-2.711,7.568-3.381,11.289-1.667c3.672,1.691,6.086,5.457,6.086,9.499v10.647v0.847c1.367,0.172,2.73,0.378,4.086,0.624
			c10.074,1.823,19.927,5.983,27.294,13.246c3.49,3.44,6.346,7.539,8.356,12.009c0.561,1.247,1.052,2.524,1.477,3.824
			c0.396,1.213,0.794,2.462,0.983,3.728c0.302,2.02-0.005,4.109-0.871,5.958c-1.772,3.788-5.746,6.2-9.927,6.02
			c-4.108-0.178-7.83-2.854-9.3-6.694c-0.438-1.141-0.658-2.35-1.104-3.49c-0.451-1.153-1.035-2.253-1.708-3.292
			c-1.308-2.02-3.003-3.752-4.937-5.179c-4.191-3.094-9.273-4.705-14.35-5.607v39.582c6.035,1.445,12.075,3.021,17.857,5.301
			c8.74,3.446,17.02,8.73,21.79,17.062c-0.74-1.298-1.46-2.563,0.026,0.043c1.458,2.56,0.762,1.34,0.03,0.057
			C308.364,324.214,309.61,332.211,308.786,339.808z"/>
	</g>
	<g>
		<path d="M286.003,343.679c-0.061,0.109-0.115,0.205-0.157,0.278C285.883,343.894,285.936,343.799,286.003,343.679z"/>
	</g>
</g>
</svg>
