<?xml version="1.0" encoding="iso-8859-1"?>
<!-- Generator: Adobe Illustrator 16.0.0, SVG Export Plug-In . SVG Version: 6.00 Build 0)  -->
<!DOCTYPE svg PUBLIC "-//W3C//DTD SVG 1.1//EN" "http://www.w3.org/Graphics/SVG/1.1/DTD/svg11.dtd">
<svg version="1.1" id="Layer_1" xmlns="http://www.w3.org/2000/svg" xmlns:xlink="http://www.w3.org/1999/xlink" x="0px" y="0px"
	 width="512px" height="512px" viewBox="0 0 512 512" style="enable-background:new 0 0 512 512;" xml:space="preserve">
<g>
	<g>
		<path d="M249.974,269.868c-7.002-8.572-16.13-13.281-25.793-13.281c-9.662,0-18.79,4.708-25.792,13.281
			c-19.308,6.842-31.26,20.493-31.26,35.784s11.952,28.942,31.26,35.784c7.001,8.573,16.129,13.281,25.792,13.281
			c9.664,0,18.792-4.708,25.793-13.281c19.309-6.841,31.261-20.492,31.261-35.784C281.234,290.361,269.282,276.71,249.974,269.868z"
			/>
		<path d="M327.242,284.616c-16.019,0-29.051,9.437-29.051,21.036s13.032,21.036,29.051,21.036s29.051-9.437,29.051-21.036
			S343.261,284.616,327.242,284.616z"/>
		<path d="M121.12,284.616c-16.019,0-29.052,9.437-29.052,21.036s13.033,21.036,29.052,21.036c16.019,0,29.051-9.437,29.051-21.036
			S137.139,284.616,121.12,284.616z"/>
	</g>
	<path d="M479.539,172.977L109.393,92.711c-5.979-1.297-11.878,2.5-13.175,8.479l-19.64,90.571H34.807
		c-6.119,0-11.079,4.959-11.079,11.079v205.623c0,6.119,4.96,11.079,11.079,11.079h378.748c6.119,0,11.079-4.959,11.079-11.079
		v-14.318l6.632,1.438c5.98,1.297,11.878-2.5,13.175-8.479l43.577-200.953C489.315,180.172,485.518,174.274,479.539,172.977z
		 M402.477,359.009c-4.228-2.44-9.131-3.844-14.363-3.844c-15.893,0-28.777,12.885-28.777,28.778c0,4.856,1.208,9.429,3.333,13.442
		H85.694c2.124-4.013,3.332-8.585,3.332-13.442c0-15.893-12.885-28.778-28.778-28.778c-5.232,0-10.135,1.404-14.362,3.844V252.296
		c4.227,2.44,9.129,3.844,14.362,3.844c15.893,0,28.778-12.885,28.778-28.778c0-4.856-1.208-9.429-3.332-13.442h276.976
		c-2.125,4.013-3.333,8.585-3.333,13.442c0,15.894,12.884,28.778,28.777,28.778c5.232,0,10.135-1.404,14.363-3.844V359.009z
		 M99.25,191.762l8.142-37.544c3.614,3.281,8.107,5.692,13.222,6.8c15.532,3.369,30.854-6.494,34.223-22.026
		c1.029-4.746,0.818-9.471-0.409-13.843l270.684,58.698c-2.371,2.812-4.219,6.117-5.387,9.791l0.001,0.001
		c-1.764-1.185-3.886-1.878-6.171-1.878H99.25z M433.267,334.078c-2.487-2.258-5.398-4.09-8.632-5.383V220.319
		c3.987,5.005,9.657,8.72,16.397,10.182c5.114,1.109,10.202,0.776,14.851-0.712L433.267,334.078z"/>
</g>
</svg>
