<?xml version="1.0" encoding="iso-8859-1"?>
<!-- Generator: Adobe Illustrator 16.0.0, SVG Export Plug-In . SVG Version: 6.00 Build 0)  -->
<!DOCTYPE svg PUBLIC "-//W3C//DTD SVG 1.1//EN" "http://www.w3.org/Graphics/SVG/1.1/DTD/svg11.dtd">
<svg version="1.1" id="Layer_1" xmlns="http://www.w3.org/2000/svg" xmlns:xlink="http://www.w3.org/1999/xlink" x="0px" y="0px"
	 width="512px" height="512px" viewBox="0 0 512 512" style="enable-background:new 0 0 512 512;" xml:space="preserve">
<path d="M483.762,183.673l-41.328-101.01c-1.733-4.236-6.464-6.392-10.798-4.917l-81.427,27.703H161.791L80.364,77.746
	c-4.333-1.475-9.064,0.68-10.798,4.917l-41.328,101.01c-0.89,2.176-0.856,4.62,0.092,6.771c0.949,2.15,2.732,3.822,4.939,4.632
	l80.738,29.589c0.001,0.041-0.001,0.079,0,0.119h0.008c-0.035,3.896-0.063,28.486-0.059,193.753c0,8.922,7.258,16.18,16.18,16.18
	h251.727c8.922,0,16.18-7.258,16.18-16.181c0,0-0.045-182.739-0.047-193.871l80.734-29.589c2.207-0.81,3.99-2.481,4.938-4.632
	C484.618,188.293,484.651,185.849,483.762,183.673z M287.294,272.771h-62.588c-5.378,0-9.735-4.36-9.735-9.737
	s4.357-9.735,9.735-9.735h62.588c5.378,0,9.735,4.358,9.735,9.735S292.672,272.771,287.294,272.771z M147.67,209.644l21.475-75.222
	h173.671l21.476,75.222H147.67z"/>
</svg>
