<?xml version="1.0" encoding="iso-8859-1"?>
<!-- Generator: Adobe Illustrator 16.0.0, SVG Export Plug-In . SVG Version: 6.00 Build 0)  -->
<!DOCTYPE svg PUBLIC "-//W3C//DTD SVG 1.1//EN" "http://www.w3.org/Graphics/SVG/1.1/DTD/svg11.dtd">
<svg version="1.1" id="Layer_1" xmlns="http://www.w3.org/2000/svg" xmlns:xlink="http://www.w3.org/1999/xlink" x="0px" y="0px"
	 width="512px" height="512px" viewBox="0 0 512 512" style="enable-background:new 0 0 512 512;" xml:space="preserve">
<g>
	<path d="M441.743,140.164c-4.104-5.073-8.877-9.705-14.166-13.839c0.707,13.117-0.508,27.092-3.668,41.884
		c-8.627,40.413-29.256,74.754-59.656,99.304c-30.375,24.533-68.305,37.501-109.686,37.501h-60.344l-19.533,91.513
		c-3.836,17.958-19.943,30.99-38.303,30.99h-27.201l-4.898,22.484c-1.258,5.79,0.17,11.839,3.887,16.453
		c3.715,4.614,9.324,7.298,15.25,7.298h66.498c9.24,0,17.225-6.459,19.152-15.495l22.84-107.01h76.189
		c36.854,0,70.527-11.464,97.383-33.152c26.869-21.697,45.129-52.186,52.807-88.162
		C466.069,193.556,460.501,163.353,441.743,140.164z"/>
	<path d="M155.54,392.438l22.84-107.008h76.188c36.852,0,70.527-11.464,97.383-33.153c26.867-21.697,45.129-52.186,52.809-88.161
		c7.773-36.378,2.207-66.58-16.553-89.769c-18.008-22.268-48.789-36.1-80.326-36.1H141.886c-9.209,0-17.174,6.417-19.135,15.414
		L50.753,384.184c-1.26,5.789,0.168,11.839,3.887,16.454c3.713,4.613,9.32,7.296,15.248,7.296h66.5
		C145.628,407.934,153.608,401.476,155.54,392.438z M216.483,113.538h52.229c12.287,0,23.275,5.149,30.145,14.129
		c7.297,9.539,9.43,22.729,5.852,36.188c-0.047,0.171-0.088,0.342-0.131,0.516c-6.57,27.73-33.891,50.291-60.898,50.291H193.63
		L216.483,113.538z"/>
</g>
</svg>
