<?xml version="1.0" encoding="iso-8859-1"?>
<!-- Generator: Adobe Illustrator 16.0.0, SVG Export Plug-In . SVG Version: 6.00 Build 0)  -->
<!DOCTYPE svg PUBLIC "-//W3C//DTD SVG 1.1//EN" "http://www.w3.org/Graphics/SVG/1.1/DTD/svg11.dtd">
<svg version="1.1" id="Layer_1" xmlns="http://www.w3.org/2000/svg" xmlns:xlink="http://www.w3.org/1999/xlink" x="0px" y="0px"
	 width="512px" height="512px" viewBox="0 0 512 512" style="enable-background:new 0 0 512 512;" xml:space="preserve">
<g>
	<path d="M384.82,291.784c0-15.464,12.536-28,28-28h27v-83.437c0-16.568-13.432-30-30-30H120.533c-0.201-0.006-0.397-0.03-0.6-0.03
		c-4.275,0-7.754-3.479-7.754-7.754v-6v-18.138c0-4.275,3.479-7.754,7.754-7.754h295.954c11.046,0,20-8.954,20-20s-8.954-20-20-20
		H119.934c-26.332,0-47.754,21.422-47.754,47.754l0.16,292.904c0,16.568,13.432,30,30,30h307.48c16.568,0,30-13.432,30-30v-91.545
		h-27C397.356,319.784,384.82,307.248,384.82,291.784z"/>
</g>
</svg>
