<?xml version="1.0" encoding="iso-8859-1"?>
<!-- Generator: Adobe Illustrator 16.0.0, SVG Export Plug-In . SVG Version: 6.00 Build 0)  -->
<!DOCTYPE svg PUBLIC "-//W3C//DTD SVG 1.1//EN" "http://www.w3.org/Graphics/SVG/1.1/DTD/svg11.dtd">
<svg version="1.1" id="Layer_1" xmlns="http://www.w3.org/2000/svg" xmlns:xlink="http://www.w3.org/1999/xlink" x="0px" y="0px"
	 width="512px" height="512px" viewBox="0 0 512 512" style="enable-background:new 0 0 512 512;" xml:space="preserve">
<path d="M479.531,262.241c-1.688-1.05-3.538-2.293-5.498-3.693c-9.262-6.619-16.318-14.196-20.971-22.522
	c-3.182-5.694-5.078-14.061-7.273-23.756c-4.756-20.999-10.676-47.132-33.191-67.534c-22.231-22.286,2.729-40.739,1.602-53.286
	c-0.613-6.821-5.77-12.361-12.529-13.462c-1.482-0.241-3.178-0.364-5.038-0.364c-26.603,0-61.927,33.025-64.278,34.053l-0.001,0
	l-0.026-0.004c-0.244-0.041-24.811-4.032-57.79-4.032c-36.308,0-88.396,4.828-130.351,27.831
	c-24.291,13.317-42.725,31.235-54.791,53.255c-11.271,20.57-17.268,45.336-17.865,73.664c-2.398-0.069-4.76-0.369-7.031-0.959
	c6.479-9.18,9.021-23.977-4.369-27.909c-12.324-3.62-22.66,6.31-19.525,18.563c1.058,4.134,3.157,7.576,5.929,10.381
	c-5.649,0.564-9.313-4.446-11.812-8.859c-3.176-5.611-11.816-0.573-8.635,5.047c4.109,7.26,9.997,13.097,18.625,13.843
	c4.174,0.361,8.285-1.142,11.841-3.457c4.746,1.995,9.977,3.054,14.949,3.291c0.688,56.901,13.072,81.277,55.059,110.82
	c0.392,0.275,0.796,0.532,1.212,0.769c2.896,1.648,6.802,7.32,8.96,24.982c0.327,2.67,0.604,5.541,0.819,8.531
	c0.536,7.404,6.407,13.302,13.81,13.872l17.97,1.384c0.393,0.03,0.782,0.032,1.177,0.044c8.282-0.002,14.995-6.717,14.995-15
	c0-0.376-0.014-0.75-0.041-1.119c-0.08-5.334,0.71-9.093,2.353-11.176c1.252-1.589,2.874-2.19,5.116-1.841
	c18.798,4.618,41.458,6.96,67.35,6.96c34.044,0,64.411-4.141,73.243-5.737c0.387-0.07,0.773-0.105,1.148-0.105
	c6.041,0,8.729,9.718,9.791,15.512c0.096,0.517,0.184,1.032,0.267,1.543c1.185,7.324,7.513,12.606,14.793,12.606
	c0.474,0,0.954-0.022,1.435-0.068l21.098-2.006c4.169-0.396,7.982-2.518,10.519-5.852s3.562-7.575,2.831-11.699
	c-0.116-0.653-0.23-1.312-0.344-1.981c-0.771-4.561-3.119-18.441-0.689-20.881l0.002-0.003c15.128-10.78,28.303-23.226,39.16-36.993
	l0.346-0.408c13.003-14.171,29.029-19.383,40.207-21.258c7.227-1.212,12.52-7.467,12.52-14.793v-43.458
	C486.605,269.794,483.931,264.979,479.531,262.241z M60.226,248.092c-0.134,2.468-1.84,5.938-4.309,8.29
	c-0.387,0.369-0.786,0.712-1.189,1.045c-0.008,0.01-0.016,0.021-0.024,0.031c-0.002-0.001-0.004-0.003-0.006-0.005
	c-0.001,0.002-0.003,0.003-0.005,0.005c-0.009-0.01-0.017-0.021-0.024-0.031c-0.404-0.333-0.803-0.676-1.189-1.045
	c-2.469-2.352-4.175-5.821-4.309-8.29c-0.143-2.649,2.492-4.782,5.526-4.782S60.368,245.443,60.226,248.092z M391.912,220.742
	c-9.23,0-16.738-7.515-16.738-16.751c0-9.239,7.508-16.756,16.738-16.756c9.227,0,16.733,7.517,16.733,16.756
	C408.646,213.228,401.139,220.742,391.912,220.742z"/>
</svg>
