<?xml version="1.0" encoding="iso-8859-1"?>
<!-- Generator: Adobe Illustrator 16.0.0, SVG Export Plug-In . SVG Version: 6.00 Build 0)  -->
<!DOCTYPE svg PUBLIC "-//W3C//DTD SVG 1.1//EN" "http://www.w3.org/Graphics/SVG/1.1/DTD/svg11.dtd">
<svg version="1.1" id="Layer_1" xmlns="http://www.w3.org/2000/svg" xmlns:xlink="http://www.w3.org/1999/xlink" x="0px" y="0px"
	 width="512px" height="512px" viewBox="0 0 512 512" style="enable-background:new 0 0 512 512;" xml:space="preserve">
<path d="M458.239,119.448h-84.591c8.006-10.115,11.31-23.493,12.466-29.613c1.409-7.458,3.829-26.277-4.044-40.145
	c-6.618-11.853-18.101-18.379-32.343-18.379c-23.7,0-50.065,18.063-63.672,28.831c-6.33,5.009-12.299,10.303-17.722,15.662v-0.616
	c0-5.523-4.477-10-10-10h-4.666c-5.523,0-10,4.477-10,10v0.616c-5.423-5.359-11.393-10.653-17.722-15.662
	c-13.607-10.768-39.972-28.831-63.672-28.831c-14.242,0-25.725,6.526-32.343,18.379c-7.874,13.868-5.453,32.687-4.044,40.145
	c1.156,6.121,4.459,19.499,12.466,29.613H53.761c-5.523,0-10,4.477-10,10v71.495c0,5.523,4.477,10,10,10h22.998v259.746
	c0,5.522,4.478,10,10,10h127.228h84.027h127.228c5.522,0,10-4.478,10-10V210.943h22.998c5.523,0,10-4.477,10-10v-71.495
	C468.239,123.925,463.762,119.448,458.239,119.448z M204.337,113.006c-0.001,0-0.003,0-0.005,0c-17.956,0-33.092-3.842-40.49-10.275
	l-0.697-0.57c-1.991-1.532-5.864-7.744-7.781-17.895c-1.926-10.195-0.618-17.539,0.659-19.774l0.089-0.157
	c0.952-1.714,2.01-3.025,6.161-3.025c10.365,0,27.629,8.566,45.055,22.356c11.263,8.913,20.245,18.082,26.42,25.773
	C225.789,111.54,215.674,113.006,204.337,113.006z M285.999,441.665h-59.997V261.549h59.997V441.665z M285.999,211.1h-59.997
	v-47.682h59.997V211.1z M356.636,84.267c-1.917,10.151-5.791,16.363-7.781,17.895l-0.697,0.57
	c-7.398,6.434-22.535,10.275-40.489,10.275c-11.339,0-21.456-1.467-29.416-3.566c6.175-7.691,15.157-16.861,26.42-25.773
	c17.426-13.79,34.69-22.356,45.055-22.356c4.15,0,5.208,1.311,6.161,3.025l0.089,0.157
	C357.253,66.728,358.562,74.072,356.636,84.267z"/>
</svg>
