<?xml version="1.0" encoding="iso-8859-1"?>
<!-- Generator: Adobe Illustrator 16.0.0, SVG Export Plug-In . SVG Version: 6.00 Build 0)  -->
<!DOCTYPE svg PUBLIC "-//W3C//DTD SVG 1.1//EN" "http://www.w3.org/Graphics/SVG/1.1/DTD/svg11.dtd">
<svg version="1.1" id="Layer_1" xmlns="http://www.w3.org/2000/svg" xmlns:xlink="http://www.w3.org/1999/xlink" x="0px" y="0px"
	 width="512px" height="512px" viewBox="0 0 512 512" style="enable-background:new 0 0 512 512;" xml:space="preserve">
<path d="M445.5,295.247L228.075,77.822c-3.336-3.337-7.746-5.386-12.449-5.786L82.334,60.714
	c-5.872-0.499-11.667,1.618-15.835,5.786s-6.284,9.962-5.785,15.835l11.322,133.291c0.399,4.703,2.449,9.113,5.786,12.45
	L295.247,445.5c7.811,7.811,20.473,7.811,28.283,0L445.5,323.531C453.311,315.721,453.311,303.058,445.5,295.247z M142.927,142.928
	c-5.697,5.698-14.937,5.697-20.635-0.001L106.865,127.5c-5.698-5.698-5.698-14.937-0.001-20.635
	c5.699-5.698,14.938-5.697,20.636,0.001l15.427,15.426C148.625,127.991,148.626,137.229,142.927,142.928z M298.426,354.995
	c-5.857,5.857-15.354,5.857-21.213,0L157.005,234.787c-5.857-5.858-5.857-15.355,0-21.213c5.858-5.858,15.355-5.858,21.214,0
	l120.208,120.208C304.284,339.64,304.284,349.138,298.426,354.995z M354.995,298.426c-5.858,5.858-15.355,5.858-21.214,0
	L213.574,178.218c-5.858-5.858-5.858-15.355,0-21.213c5.857-5.857,15.355-5.857,21.213,0l120.208,120.208
	C360.853,283.071,360.853,292.568,354.995,298.426z"/>
</svg>
