<?xml version="1.0" encoding="iso-8859-1"?>
<!-- Generator: Adobe Illustrator 16.0.0, SVG Export Plug-In . SVG Version: 6.00 Build 0)  -->
<!DOCTYPE svg PUBLIC "-//W3C//DTD SVG 1.1//EN" "http://www.w3.org/Graphics/SVG/1.1/DTD/svg11.dtd">
<svg version="1.1" id="Layer_1" xmlns="http://www.w3.org/2000/svg" xmlns:xlink="http://www.w3.org/1999/xlink" x="0px" y="0px"
	 width="512px" height="512px" viewBox="0 0 512 512" style="enable-background:new 0 0 512 512;" xml:space="preserve">
<path d="M445.5,295.247L228.075,77.822c-3.336-3.337-7.746-5.386-12.449-5.786L82.334,60.714
	c-5.872-0.499-11.667,1.618-15.835,5.786s-6.284,9.962-5.785,15.834l11.322,133.292c0.399,4.703,2.449,9.113,5.786,12.45
	L295.247,445.5c7.811,7.811,20.473,7.811,28.283,0L445.5,323.531C453.311,315.721,453.311,303.058,445.5,295.247z M142.927,142.928
	c-5.697,5.698-14.937,5.697-20.635-0.001L106.865,127.5c-5.698-5.698-5.698-14.937-0.001-20.635
	c5.699-5.698,14.938-5.698,20.636,0.001l15.427,15.426C148.625,127.991,148.626,137.229,142.927,142.928z M357.315,295.074
	c-27.779,27.778-68.774,34.108-101.391,18.62l-12.146,12.146c-4.213,4.214-11.045,4.213-15.258,0
	c-4.214-4.214-4.214-11.045,0-15.258l8.898-8.898c-1.639-1.403-3.237-2.879-4.787-4.429c-1.55-1.55-3.025-3.147-4.429-4.787
	l-8.898,8.897c-4.214,4.214-11.045,4.214-15.258,0c-4.213-4.213-4.214-11.045,0-15.258l12.146-12.146
	c-15.488-32.617-9.158-73.612,18.62-101.391c4.214-4.213,11.045-4.214,15.259,0c4.213,4.214,4.213,11.046,0,15.259
	c-19.116,19.115-24.981,46.35-17.316,69.57l35.378-35.378c4.213-4.213,11.045-4.213,15.258,0c4.214,4.214,4.214,11.045,0,15.259
	l-39.867,39.867c1.357,1.675,2.812,3.294,4.368,4.849c1.555,1.556,3.174,3.01,4.849,4.368l39.868-39.867
	c4.213-4.213,11.045-4.213,15.258,0s4.213,11.045,0,15.258l-35.378,35.378c23.221,7.664,50.456,1.799,69.57-17.316
	c4.214-4.213,11.045-4.213,15.259,0C361.528,284.029,361.528,290.861,357.315,295.074z"/>
</svg>
