<?xml version="1.0" encoding="iso-8859-1"?>
<!-- Generator: Adobe Illustrator 16.0.0, SVG Export Plug-In . SVG Version: 6.00 Build 0)  -->
<!DOCTYPE svg PUBLIC "-//W3C//DTD SVG 1.1//EN" "http://www.w3.org/Graphics/SVG/1.1/DTD/svg11.dtd">
<svg version="1.1" id="Layer_1" xmlns="http://www.w3.org/2000/svg" xmlns:xlink="http://www.w3.org/1999/xlink" x="0px" y="0px"
	 width="512px" height="512px" viewBox="0 0 512 512" style="enable-background:new 0 0 512 512;" xml:space="preserve">
<g>
	<path d="M67.359,94.643h-26c-2.762,0-5,2.239-5,5v312.715c0,2.761,2.238,5,5,5h26c2.762,0,5-2.239,5-5V99.643
		C72.359,96.881,70.121,94.643,67.359,94.643z"/>
	<path d="M113.358,94.643h-22c-2.762,0-5,2.239-5,5v312.715c0,2.761,2.238,5,5,5h22c2.762,0,5-2.239,5-5V99.643
		C118.358,96.881,116.12,94.643,113.358,94.643z"/>
	<path d="M150.358,94.643h-11c-2.762,0-5,2.239-5,5v312.715c0,2.761,2.238,5,5,5h11c2.762,0,5-2.239,5-5V99.643
		C155.358,96.881,153.12,94.643,150.358,94.643z"/>
	<path d="M184.171,94.643h-12.625c-2.762,0-5,2.239-5,5v312.715c0,2.761,2.238,5,5,5h12.625c2.762,0,5-2.239,5-5V99.643
		C189.171,96.881,186.933,94.643,184.171,94.643z"/>
	<path d="M236.171,94.643h-20.625c-2.762,0-5,2.239-5,5v312.715c0,2.761,2.238,5,5,5h20.625c2.762,0,5-2.239,5-5V99.643
		C241.171,96.881,238.933,94.643,236.171,94.643z"/>
	<path d="M269.858,94.643h-10.313c-2.762,0-5,2.239-5,5v312.715c0,2.761,2.238,5,5,5h10.313c2.762,0,5-2.239,5-5V99.643
		C274.858,96.881,272.62,94.643,269.858,94.643z"/>
	<path d="M305.679,94.643h-12.807c-2.762,0-5,2.239-5,5v312.715c0,2.761,2.238,5,5,5h12.807c2.762,0,5-2.239,5-5V99.643
		C310.679,96.881,308.44,94.643,305.679,94.643z"/>
	<path d="M357.858,94.643h-10.313c-2.762,0-5,2.239-5,5v312.715c0,2.761,2.238,5,5,5h10.313c2.762,0,5-2.239,5-5V99.643
		C362.858,96.881,360.62,94.643,357.858,94.643z"/>
	<path d="M413.358,94.643h-21.461c-2.762,0-5,2.239-5,5v312.715c0,2.761,2.238,5,5,5h21.461c2.762,0,5-2.239,5-5V99.643
		C418.358,96.881,416.12,94.643,413.358,94.643z"/>
	<path d="M470.641,94.643h-30.743c-2.762,0-5,2.239-5,5v312.715c0,2.761,2.238,5,5,5h30.743c2.762,0,5-2.239,5-5V99.643
		C475.641,96.881,473.402,94.643,470.641,94.643z"/>
</g>
</svg>
