<?xml version="1.0" encoding="iso-8859-1"?>
<!-- Generator: Adobe Illustrator 16.0.0, SVG Export Plug-In . SVG Version: 6.00 Build 0)  -->
<!DOCTYPE svg PUBLIC "-//W3C//DTD SVG 1.1//EN" "http://www.w3.org/Graphics/SVG/1.1/DTD/svg11.dtd">
<svg version="1.1" id="Layer_1" xmlns="http://www.w3.org/2000/svg" xmlns:xlink="http://www.w3.org/1999/xlink" x="0px" y="0px"
	 width="512px" height="512px" viewBox="0 0 512 512" style="enable-background:new 0 0 512 512;" xml:space="preserve">
<g>
	<path d="M164.254,174.174c5.522,0,10-4.477,10-10V60.68c0-5.523-4.478-10-10-10H60.758c-5.522,0-10,4.477-10,10v103.494
		c0,5.523,4.478,10,10,10H164.254z M70.758,70.68h83.496v83.494H70.758V70.68z"/>
	<rect x="91.506" y="91.427" width="42" height="42"/>
	<path d="M451.242,50.68H347.746c-5.522,0-10,4.477-10,10v103.494c0,5.523,4.478,10,10,10h103.496c5.522,0,10-4.477,10-10V60.68
		C461.242,55.157,456.765,50.68,451.242,50.68z M441.242,154.174h-83.496V70.68h83.496V154.174z"/>
	<rect x="378.494" y="91.427" width="42" height="42"/>
	<path d="M451.242,337.826H347.746c-5.522,0-10,4.477-10,10V451.32c0,5.523,4.478,10,10,10h103.496c5.522,0,10-4.477,10-10V347.826
		C461.242,342.303,456.765,337.826,451.242,337.826z M441.242,441.32h-83.496v-83.494h83.496V441.32z"/>
	<rect x="378.494" y="378.573" width="42" height="42"/>
	<path d="M112.758,344.865v-44.939h54.5c1.379,0,2.5-1.122,2.5-2.5v-47.439c0-1.378-1.121-2.5-2.5-2.5h-54.5v-44.939
		c0-1.378-1.121-2.5-2.5-2.5h-57c-1.379,0-2.5,1.122-2.5,2.5v47.439c0,1.378,1.121,2.5,2.5,2.5h54.5v42.439h-54.5
		c-1.379,0-2.5,1.122-2.5,2.5v47.439c0,1.378,1.121,2.5,2.5,2.5h57C111.637,347.365,112.758,346.244,112.758,344.865z"/>
	<path d="M199.48,228.823c-1.379,0-2.5,1.122-2.5,2.5v55.232c0,1.378,1.121,2.5,2.5,2.5h55.232c1.379,0,2.5-1.122,2.5-2.5v-55.232
		c0-1.378-1.121-2.5-2.5-2.5H199.48z"/>
	<path d="M238.474,162.014h67.412c1.379,0,2.5-1.122,2.5-2.5V92.102c0-1.378-1.121-2.5-2.5-2.5h-67.412c-1.379,0-2.5,1.122-2.5,2.5
		v67.412C235.974,160.892,237.095,162.014,238.474,162.014z"/>
	<path d="M301.393,195.835v50.638c0,1.378,1.121,2.5,2.5,2.5h50.638c1.379,0,2.5-1.122,2.5-2.5v-50.638c0-1.378-1.121-2.5-2.5-2.5
		h-50.638C302.514,193.335,301.393,194.457,301.393,195.835z"/>
	<path d="M140.492,369.085h-35.487c-1.379,0-2.5,1.122-2.5,2.5v32.987H53.258c-1.379,0-2.5,1.122-2.5,2.5v51.747
		c0,1.378,1.121,2.5,2.5,2.5h51.747c1.379,0,2.5-1.122,2.5-2.5v-49.247h32.987c1.379,0,2.5-1.122,2.5-2.5v-35.487
		C142.992,370.207,141.871,369.085,140.492,369.085z"/>
	<path d="M317.763,333.598h-35.487c-1.379,0-2.5,1.122-2.5,2.5v32.987h-30.487v-32.987c0-1.378-1.121-2.5-2.5-2.5h-35.487
		c-1.379,0-2.5,1.122-2.5,2.5v35.487c0,1.378,1.121,2.5,2.5,2.5h32.987v30.487h-49.247c-1.379,0-2.5,1.122-2.5,2.5v51.747
		c0,1.378,1.121,2.5,2.5,2.5h51.747c1.379,0,2.5-1.122,2.5-2.5v-49.247h32.987c1.379,0,2.5-1.122,2.5-2.5v-32.987h32.987
		c1.379,0,2.5-1.122,2.5-2.5v-35.487C320.263,334.72,319.142,333.598,317.763,333.598z"/>
	<path d="M223.141,199.662v-35.487c0-1.378-1.121-2.5-2.5-2.5h-35.487c-1.378,0-2.5,1.122-2.5,2.5v35.487c0,1.378,1.122,2.5,2.5,2.5
		h35.487C222.02,202.162,223.141,201.04,223.141,199.662z"/>
	<path d="M237.467,88.667V53.18c0-1.378-1.121-2.5-2.5-2.5H199.48c-1.379,0-2.5,1.122-2.5,2.5v35.487c0,1.378,1.121,2.5,2.5,2.5
		h35.486C236.346,91.167,237.467,90.046,237.467,88.667z"/>
	<path d="M458.742,234.743c1.379,0,2.5-1.122,2.5-2.5v-35.487c0-1.378-1.121-2.5-2.5-2.5h-35.487c-1.379,0-2.5,1.122-2.5,2.5v32.987
		h-32.987c-1.379,0-2.5,1.122-2.5,2.5v35.487c0,1.378,1.121,2.5,2.5,2.5h32.987v32.987c0,1.378,1.121,2.5,2.5,2.5h35.487
		c1.379,0,2.5-1.122,2.5-2.5V267.73c0-1.378-1.121-2.5-2.5-2.5h-32.987v-30.487H458.742z"/>
</g>
</svg>
