<?xml version="1.0" encoding="iso-8859-1"?>
<!-- Generator: Adobe Illustrator 16.0.0, SVG Export Plug-In . SVG Version: 6.00 Build 0)  -->
<!DOCTYPE svg PUBLIC "-//W3C//DTD SVG 1.1//EN" "http://www.w3.org/Graphics/SVG/1.1/DTD/svg11.dtd">
<svg version="1.1" id="Layer_1" xmlns="http://www.w3.org/2000/svg" xmlns:xlink="http://www.w3.org/1999/xlink" x="0px" y="0px"
	 width="512px" height="512px" viewBox="0 0 512 512" style="enable-background:new 0 0 512 512;" xml:space="preserve">
<g>
	<path d="M465.574,230.134c-4.75-5.725-11.803-9.037-19.24-9.037H164.869l-2.73-14.188c-1.742-9.059-8.332-16.421-17.143-19.154
		l-71.917-22.307c-13.186-4.09-27.194,3.283-31.284,16.472c-4.09,13.187,3.284,27.193,16.471,31.284l57.605,17.867l43.904,192.631
		c1.529,8.148,6.91,14.746,14.043,18.062c-0.211,1.713-0.332,3.452-0.332,5.221c0,23.348,18.994,42.343,42.342,42.343
		s42.342-18.995,42.342-42.343c0-0.975-0.045-1.938-0.109-2.896h66.844c-0.066,0.959-0.111,1.922-0.111,2.896
		c0,23.348,18.995,42.343,42.342,42.343c23.348,0,42.344-18.995,42.344-42.343c0-1.044-0.052-2.075-0.127-3.101
		c10.699-1.296,19.521-9.364,21.553-20.182l40-172.99C472.277,243.4,470.323,235.858,465.574,230.134z M215.828,467.605
		c-11.371,0-20.621-9.251-20.621-20.622c0-11.37,9.25-20.621,20.621-20.621s20.621,9.251,20.621,20.621
		C236.449,458.354,227.199,467.605,215.828,467.605z M367.135,467.605c-11.369,0-20.621-9.251-20.621-20.622
		c0-11.37,9.252-20.621,20.621-20.621c11.371,0,20.623,9.251,20.623,20.621C387.758,458.354,378.506,467.605,367.135,467.605z
		 M381.667,381.822H210.332c-8.283,0-15-6.716-15-15s6.717-15,15-15h171.335c8.284,0,15,6.716,15,15
		S389.951,381.822,381.667,381.822z M381.667,301.822H210.332c-8.283,0-15-6.716-15-15s6.717-15,15-15h171.335
		c8.284,0,15,6.716,15,15S389.951,301.822,381.667,301.822z"/>
	<path d="M236.803,146.938c3.622,3.621,9.067,4.705,13.798,2.745c4.731-1.959,7.815-6.577,7.815-11.697V105.37h45.396v75.865
		c0,10.333,8.376,18.709,18.71,18.709c10.332,0,18.709-8.376,18.709-18.709V86.66c0-10.333-8.377-18.709-18.709-18.709h-64.105
		V35.335c0-5.121-3.084-9.738-7.815-11.697c-4.73-1.959-10.176-0.876-13.798,2.745l-51.325,51.326
		c-2.472,2.472-3.708,5.711-3.708,8.952s1.236,6.48,3.708,8.952L236.803,146.938z"/>
</g>
</svg>
