<?xml version="1.0" encoding="iso-8859-1"?>
<!-- Generator: Adobe Illustrator 16.0.0, SVG Export Plug-In . SVG Version: 6.00 Build 0)  -->
<!DOCTYPE svg PUBLIC "-//W3C//DTD SVG 1.1//EN" "http://www.w3.org/Graphics/SVG/1.1/DTD/svg11.dtd">
<svg version="1.1" id="Layer_1" xmlns="http://www.w3.org/2000/svg" xmlns:xlink="http://www.w3.org/1999/xlink" x="0px" y="0px"
	 width="512px" height="512px" viewBox="0 0 512 512" style="enable-background:new 0 0 512 512;" xml:space="preserve">
<path d="M482.45,375.537c-0.266-4.339-2.115-8.405-5.153-11.443c-0.506-0.507-1.048-0.985-1.618-1.43
	c-60.666-47.415-118.923-98.953-173.146-153.178C248.308,155.262,196.764,97,149.335,36.32c-0.445-0.571-0.924-1.111-1.432-1.618
	c-3.037-3.039-7.102-4.888-11.441-5.153c-5.063-0.309-10.014,1.568-13.6,5.153l-88.16,88.16c-3.586,3.588-5.462,8.538-5.152,13.602
	c0.264,4.338,2.109,8.397,5.151,11.441c0.507,0.505,1.046,0.984,1.618,1.432c47.678,37.268,93.848,77.076,137.747,118.712
	c-14.328-0.235-30.774-1.987-47.696-6.811c-2.637-0.752-5.46,0.232-7.059,2.46c-1.595,2.229-1.623,5.219-0.064,7.475l12.744,18.446
	l-26.115,8.663c-2.666,0.885-4.461,3.382-4.449,6.191c0.013,2.809,1.828,5.293,4.503,6.153c25.358,8.169,51.282,11.536,77.05,10.005
	l7.552-0.449l-2.142,7.256c-5.838,19.767-8.732,40.537-8.605,61.733c0.011,1.751,0.723,3.374,1.904,4.555
	c0.014,0.014,0.025,0.027,0.039,0.041c2.539,2.511,6.631,2.502,9.158-0.025c0.389-0.39,0.717-0.814,0.986-1.266l15.77-21.842
	l13.773,17.701c1.684,2.164,4.543,3.037,7.148,2.183c2.604-0.854,4.391-3.25,4.466-5.989c0.513-18.555,4.134-35.52,8.351-49.31
	c42.595,44.723,83.271,91.819,121.283,140.461c0.446,0.573,0.925,1.112,1.431,1.62c3.039,3.039,7.103,4.887,11.442,5.152
	c5.063,0.311,10.014-1.566,13.6-5.152l88.16-88.16C480.884,385.551,482.761,380.6,482.45,375.537z M215.454,258.676
	c-44.976-43.723-92.467-85.586-141.633-124.846l60.008-60.009c39.258,49.163,81.122,96.654,124.848,141.629L215.454,258.676z
	 M378.171,438.177c-39.238-49.151-81.102-96.642-124.846-141.631l43.224-43.224c44.979,43.73,92.474,85.598,141.629,124.849
	L378.171,438.177z"/>
<g>
</g>
</svg>
