<?xml version="1.0" encoding="iso-8859-1"?>
<!-- Generator: Adobe Illustrator 16.0.0, SVG Export Plug-In . SVG Version: 6.00 Build 0)  -->
<!DOCTYPE svg PUBLIC "-//W3C//DTD SVG 1.1//EN" "http://www.w3.org/Graphics/SVG/1.1/DTD/svg11.dtd">
<svg version="1.1" id="Layer_1" xmlns="http://www.w3.org/2000/svg" xmlns:xlink="http://www.w3.org/1999/xlink" x="0px" y="0px"
	 width="512px" height="512px" viewBox="0 0 512 512" style="enable-background:new 0 0 512 512;" xml:space="preserve">
<g>
	<path d="M325.916,165.744h-139.83c-75.617,0-136.92,61.302-136.92,136.919c0,75.618,14.16,136.919,89.775,136.919h234.117
		c75.617,0,89.775-61.301,89.775-136.919C462.834,227.046,401.535,165.744,325.916,165.744z"/>
	<path d="M444.928,155.334c-30.635-28.87-70.691-44.771-112.795-44.771h-42.67l10.43-13.193c5.275-6.672,4.145-16.356-2.529-21.632
		c-6.67-5.274-16.355-4.144-21.631,2.529L256,103.226l-19.732-24.958c-5.275-6.672-14.959-7.805-21.631-2.529
		c-6.674,5.275-7.805,14.96-2.529,21.632l10.432,13.193h-42.672c-42.104,0-82.16,15.9-112.795,44.771
		c-6.189,5.834-6.479,15.58-0.645,21.77c5.834,6.191,15.576,6.478,21.77,0.646c24.896-23.464,57.451-36.386,91.67-36.386h152.266
		c34.219,0,66.773,12.922,91.67,36.386c2.975,2.804,6.771,4.193,10.561,4.193c4.094,0,8.18-1.623,11.211-4.839
		C451.406,170.914,451.119,161.168,444.928,155.334z"/>
</g>
</svg>
