<?xml version="1.0" encoding="iso-8859-1"?>
<!-- Generator: Adobe Illustrator 16.0.0, SVG Export Plug-In . SVG Version: 6.00 Build 0)  -->
<!DOCTYPE svg PUBLIC "-//W3C//DTD SVG 1.1//EN" "http://www.w3.org/Graphics/SVG/1.1/DTD/svg11.dtd">
<svg version="1.1" id="Layer_1" xmlns="http://www.w3.org/2000/svg" xmlns:xlink="http://www.w3.org/1999/xlink" x="0px" y="0px"
	 width="512px" height="512px" viewBox="0 0 512 512" style="enable-background:new 0 0 512 512;" xml:space="preserve">
<g>
	<path d="M356.439,229.092c-6.919,0-12.653,2.384-17.532,7.289c-4.453,4.476-6.818,9.632-7.2,15.713l37.072-19.811
		C365.12,230.141,361.051,229.092,356.439,229.092z"/>
	<path d="M454.622,293.079c14.26-9.203,30.422-19.634,30.422-37.079s-16.162-27.875-30.422-37.079
		c-4.9-3.163-13.851-8.94-15.918-11.971c0.155-3.817,5.426-14.132,8.008-19.189c7.575-14.827,16.16-31.631,7.659-46.324
		c-8.592-14.85-27.597-15.796-44.364-16.632c-5.991-0.298-16.947-0.844-20.277-2.536c-1.691-3.33-2.236-14.286-2.535-20.277
		c-0.836-16.768-1.783-35.772-16.633-44.364c-4.021-2.326-8.594-3.506-13.592-3.506c-10.879,0-21.989,5.676-32.732,11.165
		c-6.404,3.271-15.1,7.714-19.217,7.99c-3.037-2.104-8.789-11.014-11.941-15.899c-9.203-14.26-19.635-30.422-37.079-30.422
		s-27.876,16.162-37.079,30.421c-3.156,4.891-8.916,13.814-11.951,15.906c-4.014-0.233-12.77-4.707-19.209-7.996
		c-10.743-5.489-21.853-11.165-32.731-11.165c-4.998,0-9.571,1.18-13.591,3.506c-14.85,8.591-15.797,27.596-16.633,44.364
		c-0.298,5.992-0.844,16.948-2.535,20.278c-3.33,1.691-14.286,2.237-20.277,2.536c-16.768,0.835-35.772,1.782-44.364,16.631
		c-8.501,14.693,0.084,31.498,7.659,46.325c2.582,5.056,7.853,15.372,8.008,19.189c-2.067,3.031-11.018,8.808-15.918,11.971
		c-14.26,9.203-30.422,19.634-30.422,37.079s16.162,27.875,30.422,37.079c4.9,3.163,13.851,8.94,15.918,11.971
		c-0.155,3.817-5.426,14.133-8.009,19.189c-7.575,14.826-16.159,31.63-7.659,46.323c8.592,14.85,27.597,15.796,44.364,16.632
		c5.991,0.298,16.947,0.844,20.277,2.536c1.691,3.33,2.237,14.286,2.536,20.278c0.835,16.767,1.781,35.772,16.632,44.364
		c4.021,2.327,8.595,3.506,13.593,3.506c10.879-0.001,21.988-5.676,32.73-11.165c6.404-3.271,15.1-7.714,19.217-7.99
		c3.039,2.103,8.79,11.014,11.943,15.9c9.203,14.259,19.635,30.421,37.079,30.421s27.876-16.162,37.079-30.421
		c3.156-4.891,8.916-13.814,11.951-15.906c4.014,0.233,12.771,4.707,19.21,7.996c10.743,5.488,21.853,11.164,32.731,11.164
		c4.998,0,9.57-1.18,13.591-3.506c14.851-8.592,15.796-27.596,16.632-44.364c0.298-5.991,0.844-16.946,2.535-20.277
		c3.33-1.691,14.285-2.237,20.277-2.536c16.768-0.835,35.772-1.782,44.364-16.632c8.501-14.693-0.084-31.498-7.659-46.324
		c-2.582-5.057-7.853-15.373-8.008-19.189C440.771,302.019,449.722,296.242,454.622,293.079z M173.038,290.191
		c-5.391,4.712-12.061,7.102-19.827,7.102h-31.376c-4.685,0-8.483-3.798-8.483-8.483v-2.508c0-4.686,3.799-8.484,8.483-8.484h31.376
		c6.54,0,7.441-2.477,7.441-5.154c0-1.518-1.638-5.543-16.808-10.131c-13.029-3.936-21.171-8.083-24.892-12.678
		c-3.718-4.595-5.602-10.044-5.602-16.2c0-6.49,2.565-12.056,7.627-16.543c4.972-4.41,11.12-6.647,18.272-6.647h29.685
		c4.685,0,8.483,3.798,8.483,8.483v2.508c0,4.686-3.799,8.483-8.483,8.483h-29.685c-6.086,0-6.086,3.024-6.086,4.477
		c0,1.306,1.614,6.14,22.379,13.511c17.098,6.071,25.766,14.251,25.766,24.313C181.31,279.353,178.526,285.392,173.038,290.191z
		 M271.923,288.81c0,4.685-3.799,8.483-8.484,8.483h-2.93c-4.685,0-8.482-3.798-8.482-8.483v-34.93
		c0-6.867-2.374-12.591-7.258-17.497c-4.881-4.906-10.614-7.29-17.53-7.29c-6.917,0-12.651,2.384-17.53,7.289
		c-4.883,4.908-7.256,10.632-7.256,17.498c0,6.919,2.371,12.655,7.251,17.534c4.878,4.879,10.614,7.251,17.535,7.251
		c2.521,0,4.955-0.336,7.231-0.998c3.898-1.137,8.065,0.657,9.92,4.277l1.374,2.681c1.145,2.234,1.241,4.861,0.263,7.173
		c-0.977,2.312-2.929,4.072-5.33,4.807c-4.242,1.298-8.77,1.957-13.458,1.957c-12.265,0-22.89-4.392-31.58-13.053
		c-8.695-8.664-13.104-19.306-13.104-31.629c0-12.266,4.407-22.893,13.101-31.585c8.69-8.691,19.317-13.099,31.584-13.099
		c12.265,0,22.892,4.407,31.584,13.099c8.692,8.693,13.101,19.319,13.101,31.585V288.81z M301.273,288.81
		c0,4.685-3.799,8.483-8.483,8.483h-2.846c-4.685,0-8.482-3.798-8.482-8.483V175.117c0-4.686,3.798-8.483,8.482-8.483h2.846
		c4.685,0,8.483,3.798,8.483,8.483V288.81z M398.057,270.534c-2.172,5.51-5.463,10.402-10.06,14.957
		c-8.665,8.665-19.292,13.071-31.558,13.071c-12.265,0-22.891-4.392-31.581-13.053c-8.694-8.661-13.104-19.303-13.104-31.629
		c0-12.267,4.408-22.894,13.1-31.585c8.69-8.691,19.318-13.099,31.585-13.099c16.337,0,28.736,6.184,36.854,18.38
		c0.113,0.17,0.208,0.315,0.288,0.429c1.443,1.983,1.953,4.488,1.405,6.879s-2.107,4.421-4.271,5.579l-53.772,28.781
		c0.602,0.742,1.253,1.464,1.958,2.169c4.88,4.88,10.616,7.251,17.537,7.251c6.919,0,12.669-2.386,17.579-7.294
		c2.325-2.325,4.102-4.914,5.278-7.695c1.503-3.547,5.209-5.64,9.019-5.09l3.055,0.438c2.568,0.369,4.827,1.893,6.13,4.136
		C398.804,265.404,399.009,268.12,398.057,270.534z"/>
</g>
</svg>
