<?xml version="1.0" encoding="iso-8859-1"?>
<!-- Generator: Adobe Illustrator 16.0.0, SVG Export Plug-In . SVG Version: 6.00 Build 0)  -->
<!DOCTYPE svg PUBLIC "-//W3C//DTD SVG 1.1//EN" "http://www.w3.org/Graphics/SVG/1.1/DTD/svg11.dtd">
<svg version="1.1" id="Layer_1" xmlns="http://www.w3.org/2000/svg" xmlns:xlink="http://www.w3.org/1999/xlink" x="0px" y="0px"
	 width="512px" height="512px" viewBox="0 0 512 512" style="enable-background:new 0 0 512 512;" xml:space="preserve">
<g>
	<path d="M256,72.902c23.157,0,41.997,18.84,41.997,41.997h30c0-39.699-32.298-71.997-71.997-71.997s-71.997,32.298-71.997,71.997
		h30C214.003,91.742,232.843,72.902,256,72.902z"/>
	<path d="M425.914,452.445l-19.955-308.686c-0.455-7.938-7.024-14.143-14.976-14.143H120.997c-7.951,0-14.521,6.205-14.976,14.143
		l-20,309.482c-0.236,4.12,1.236,8.156,4.07,11.156c2.833,3,6.778,4.701,10.905,4.701h309.986c0.008,0,0.014,0,0.02,0
		c8.284,0,15-6.716,15-15C426.003,453.54,425.973,452.988,425.914,452.445z M226.48,177.299c0,10.487-8.501,18.988-18.988,18.988
		c-10.487,0-18.988-8.501-18.988-18.988v-10.807c0-10.487,8.501-18.988,18.988-18.988c10.487,0,18.988,8.501,18.988,18.988V177.299z
		 M323.496,177.299c0,10.487-8.501,18.988-18.988,18.988c-10.487,0-18.988-8.501-18.988-18.988v-10.807
		c0-10.487,8.501-18.988,18.988-18.988c10.487,0,18.988,8.501,18.988,18.988V177.299z"/>
</g>
</svg>
