<?xml version="1.0" encoding="iso-8859-1"?>
<!-- Generator: Adobe Illustrator 16.0.0, SVG Export Plug-In . SVG Version: 6.00 Build 0)  -->
<!DOCTYPE svg PUBLIC "-//W3C//DTD SVG 1.1//EN" "http://www.w3.org/Graphics/SVG/1.1/DTD/svg11.dtd">
<svg version="1.1" id="Layer_1" xmlns="http://www.w3.org/2000/svg" xmlns:xlink="http://www.w3.org/1999/xlink" x="0px" y="0px"
	 width="512px" height="512px" viewBox="0 0 512 512" style="enable-background:new 0 0 512 512;" xml:space="preserve">
<g>
	<path d="M455.2,171.718h-70c-11.046,0-20,8.954-20,20v18.801H311v-18.801c0-11.046-8.954-20-20-20h-70c-11.046,0-20,8.954-20,20
		v18.801h-54.2v-18.801c0-11.046-8.954-20-20-20h-70c-11.046,0-20,8.954-20,20v38.801c0,11.046,8.954,20,20,20h1.015L76.09,442.415
		c0.978,10.265,9.599,18.104,19.91,18.104h320c10.311,0,18.932-7.839,19.91-18.104l18.276-191.896h1.015c11.046,0,20-8.954,20-20
		v-38.801C475.2,180.672,466.246,171.718,455.2,171.718z M196,385.519c0,11.046-8.954,20-20,20s-20-8.954-20-20v-88
		c0-11.046,8.954-20,20-20s20,8.954,20,20V385.519z M276,385.519c0,11.046-8.954,20-20,20s-20-8.954-20-20v-88
		c0-11.046,8.954-20,20-20s20,8.954,20,20V385.519z M356,385.519c0,11.046-8.954,20-20,20s-20-8.954-20-20v-88
		c0-11.046,8.954-20,20-20s20,8.954,20,20V385.519z"/>
	<g>
		<path d="M100.312,58.002c-7.444-8.159-20.094-8.74-28.254-1.296c-8.16,7.444-8.741,20.094-1.296,28.254l87.76,96.2
			c3.946,4.326,9.354,6.521,14.781,6.521c4.811,0,9.639-1.727,13.473-5.225c8.16-7.444,8.741-20.095,1.296-28.255L100.312,58.002z"
			/>
		<path d="M439.943,56.706c-8.161-7.444-20.81-6.864-28.254,1.296l-87.76,96.2c-7.444,8.16-6.864,20.811,1.296,28.255
			c3.835,3.498,8.661,5.225,13.473,5.225c5.427,0,10.835-2.196,14.781-6.521l87.76-96.2C448.684,76.8,448.103,64.15,439.943,56.706z
			"/>
	</g>
</g>
</svg>
