<?xml version="1.0" encoding="iso-8859-1"?>
<!-- Generator: Adobe Illustrator 16.0.0, SVG Export Plug-In . SVG Version: 6.00 Build 0)  -->
<!DOCTYPE svg PUBLIC "-//W3C//DTD SVG 1.1//EN" "http://www.w3.org/Graphics/SVG/1.1/DTD/svg11.dtd">
<svg version="1.1" id="Layer_1" xmlns="http://www.w3.org/2000/svg" xmlns:xlink="http://www.w3.org/1999/xlink" x="0px" y="0px"
	 width="512px" height="512px" viewBox="0 0 512 512" style="enable-background:new 0 0 512 512;" xml:space="preserve">
<g>
	<path d="M465.574,220.211c-4.75-5.725-11.803-9.037-19.24-9.037H164.869l-2.73-14.188c-1.742-9.059-8.332-16.421-17.143-19.154
		l-71.917-22.307c-13.186-4.09-27.194,3.283-31.284,16.472c-4.09,13.187,3.284,27.193,16.472,31.284l57.604,17.867l43.904,192.631
		c1.529,8.148,6.91,14.746,14.044,18.062c-0.212,1.713-0.333,3.452-0.333,5.221c0,23.348,18.994,42.343,42.342,42.343
		s42.342-18.995,42.342-42.343c0-0.975-0.045-1.938-0.109-2.896h66.844c-0.066,0.959-0.111,1.922-0.111,2.896
		c0,23.348,18.995,42.343,42.343,42.343s42.343-18.995,42.343-42.343c0-1.044-0.052-2.075-0.126-3.101
		c10.698-1.296,19.521-9.364,21.552-20.182l40-172.99C472.277,233.478,470.323,225.936,465.574,220.211z M215.828,457.683
		c-11.371,0-20.621-9.251-20.621-20.622c0-11.37,9.25-20.621,20.621-20.621s20.621,9.251,20.621,20.621
		C236.449,448.432,227.199,457.683,215.828,457.683z M367.136,457.683c-11.37,0-20.622-9.251-20.622-20.622
		c0-11.37,9.252-20.621,20.622-20.621s20.622,9.251,20.622,20.621C387.758,448.432,378.506,457.683,367.136,457.683z M381.667,371.9
		H210.333c-8.284,0-15-6.716-15-15s6.716-15,15-15h171.334c8.284,0,15,6.716,15,15S389.951,371.9,381.667,371.9z M381.667,291.9
		H210.333c-8.284,0-15-6.716-15-15s6.716-15,15-15h171.334c8.284,0,15,6.716,15,15S389.951,291.9,381.667,291.9z"/>
	<path d="M398.327,110.566c2.643-2.643,3.964-6.105,3.964-9.569s-1.321-6.927-3.964-9.569l-54.866-54.866
		c-3.871-3.871-9.692-5.029-14.749-2.935c-5.058,2.095-8.354,7.03-8.354,12.504v34.866h-78.834c-11.046,0-20,8.954-20,20
		s8.954,20,20,20h78.834v34.866c0,5.474,3.297,10.409,8.354,12.504c5.057,2.095,10.878,0.937,14.749-2.935L398.327,110.566z"/>
</g>
</svg>
