<?xml version="1.0" encoding="iso-8859-1"?>
<!-- Generator: Adobe Illustrator 16.0.0, SVG Export Plug-In . SVG Version: 6.00 Build 0)  -->
<!DOCTYPE svg PUBLIC "-//W3C//DTD SVG 1.1//EN" "http://www.w3.org/Graphics/SVG/1.1/DTD/svg11.dtd">
<svg version="1.1" id="Layer_1" xmlns="http://www.w3.org/2000/svg" xmlns:xlink="http://www.w3.org/1999/xlink" x="0px" y="0px"
	 width="512px" height="512px" viewBox="0 0 512 512" style="enable-background:new 0 0 512 512;" xml:space="preserve">
<path d="M465.574,159.312c-4.75-5.725-11.802-9.037-19.241-9.037H164.869l-2.73-14.188c-1.743-9.059-8.333-16.421-17.144-19.154
	L73.079,94.625c-13.186-4.089-27.194,3.284-31.284,16.472c-4.09,13.187,3.284,27.193,16.472,31.284l57.604,17.868l43.904,192.631
	c1.53,8.148,6.911,14.746,14.044,18.062c-0.212,1.712-0.333,3.452-0.333,5.221c0,23.348,18.995,42.342,42.342,42.342
	s42.342-18.995,42.342-42.342c0-0.975-0.045-1.938-0.11-2.896h66.844c-0.065,0.958-0.11,1.922-0.11,2.896
	c0,23.348,18.995,42.342,42.342,42.342s42.342-18.995,42.342-42.342c0-1.044-0.051-2.076-0.125-3.101
	c10.698-1.296,19.52-9.365,21.551-20.182l40-172.99C472.277,172.579,470.323,165.037,465.574,159.312z M215.828,396.783
	c-11.371,0-20.622-9.251-20.622-20.622s9.251-20.622,20.622-20.622s20.622,9.251,20.622,20.622S227.199,396.783,215.828,396.783z
	 M367.136,396.783c-11.371,0-20.622-9.251-20.622-20.622s9.251-20.622,20.622-20.622s20.622,9.251,20.622,20.622
	S378.506,396.783,367.136,396.783z M381.667,311H210.333c-8.284,0-15-6.716-15-15s6.716-15,15-15h171.334c8.284,0,15,6.716,15,15
	S389.951,311,381.667,311z M381.667,231H210.333c-8.284,0-15-6.716-15-15s6.716-15,15-15h171.334c8.284,0,15,6.716,15,15
	S389.951,231,381.667,231z"/>
</svg>
