<?xml version="1.0" encoding="iso-8859-1"?>
<!-- Generator: Adobe Illustrator 16.0.0, SVG Export Plug-In . SVG Version: 6.00 Build 0)  -->
<!DOCTYPE svg PUBLIC "-//W3C//DTD SVG 1.1//EN" "http://www.w3.org/Graphics/SVG/1.1/DTD/svg11.dtd">
<svg version="1.1" id="Layer_1" xmlns="http://www.w3.org/2000/svg" xmlns:xlink="http://www.w3.org/1999/xlink" x="0px" y="0px"
	 width="512px" height="512px" viewBox="0 0 512 512" style="enable-background:new 0 0 512 512;" xml:space="preserve">
<g>
	<path d="M133,226.812h48c5.522,0,10-4.478,10-10c0-5.523-4.478-10-10-10h-48c-5.522,0-10,4.477-10,10
		C123,222.334,127.478,226.812,133,226.812z"/>
	<path d="M370,216.812c0-5.523-4.478-10-10-10H220c-5.522,0-10,4.477-10,10c0,5.522,4.478,10,10,10h140
		C365.522,226.812,370,222.334,370,216.812z"/>
	<path d="M133,273.212h118c5.522,0,10-4.478,10-10c0-5.523-4.478-10-10-10H133c-5.522,0-10,4.477-10,10
		C123,268.735,127.478,273.212,133,273.212z"/>
	<path d="M78.5,376.021V176.812h336v119.847l30,30V176.812h2.5c11.046,0,20-8.954,20-20V95.195c0-11.046-8.954-20-20-20H46
		c-11.046,0-20,8.954-20,20v61.617c0,11.046,8.954,20,20,20h2.5v209.209c0,11.046,8.954,20,20,20h315.07l-30-30H78.5z"/>
	<path d="M484.184,390.871l-25.201-25.202l-44.119,44.117l25.203,25.203c2.422,2.421,6.349,2.421,8.77,0l35.348-35.348
		C486.605,397.219,486.605,393.293,484.184,390.871z"/>
	<path d="M366.844,273.53c-0.862-0.861-1.959-1.449-3.152-1.692l-44.349-9.001c-2.038-0.414-4.147,0.222-5.618,1.692
		c-1.471,1.471-2.107,3.581-1.693,5.619l9,44.349c0.244,1.194,0.832,2.29,1.693,3.151l81.305,81.305l44.117-44.118L366.844,273.53z
		 M330.088,301.765l-4.908-24.178c-0.091-0.447,0.049-0.908,0.371-1.231c0.323-0.323,0.783-0.461,1.23-0.372l24.18,4.908
		L330.088,301.765z"/>
</g>
</svg>
