<?xml version="1.0" encoding="iso-8859-1"?>
<!-- Generator: Adobe Illustrator 16.0.0, SVG Export Plug-In . SVG Version: 6.00 Build 0)  -->
<!DOCTYPE svg PUBLIC "-//W3C//DTD SVG 1.1//EN" "http://www.w3.org/Graphics/SVG/1.1/DTD/svg11.dtd">
<svg version="1.1" id="Layer_1" xmlns="http://www.w3.org/2000/svg" xmlns:xlink="http://www.w3.org/1999/xlink" x="0px" y="0px"
	 width="512px" height="512px" viewBox="0 0 512 512" style="enable-background:new 0 0 512 512;" xml:space="preserve">
<path d="M472.73,272.815h-0.626v-20.096c0-5.523-4.477-10-10-10h-8.872l-32.34-98.959c-0.898-2.747-3.462-4.606-6.352-4.606H301.607
	c-3.691,0-6.683,2.992-6.683,6.683l0.01-33.832c0-3.691-3.058-6.683-6.749-6.683H39.269c-5.522,0-10,4.477-10,10V246
	c0,5.523,4.478,10,10,10h5.253v21.315h-5.253c-5.522,0-10,4.477-10,10v18.942c0,5.523,4.478,10,10,10h5.253v19.405
	c0,3.69,2.991,6.682,6.682,6.682h25.497c-0.372,2.614-0.575,5.282-0.575,7.999c0,31.112,25.222,56.334,56.334,56.334
	s56.334-25.222,56.334-56.334c0-2.717-0.204-5.385-0.576-7.999h135.971c-0.372,2.614-0.575,5.282-0.575,7.999
	c0,31.112,25.222,56.334,56.334,56.334c31.112,0,56.334-25.222,56.334-56.334c0-2.417-0.169-4.793-0.467-7.13h26.29
	c5.523,0,10-4.477,10-10v-21.457h0.626c5.523,0,10-4.477,10-10v-18.942C482.73,277.292,478.253,272.815,472.73,272.815z
	 M132.459,376.678c-14.521,0-26.334-11.813-26.334-26.334s11.813-26.334,26.334-26.334c14.521,0,26.334,11.813,26.334,26.334
	S146.98,376.678,132.459,376.678z M379.947,376.678c-14.521,0-26.334-11.813-26.334-26.334s11.813-26.334,26.334-26.334
	c14.521,0,26.334,11.813,26.334,26.334S394.468,376.678,379.947,376.678z M322.527,237.283V160.06h75.803l25.236,77.223H322.527z"/>
</svg>
