<?xml version="1.0" encoding="iso-8859-1"?>
<!-- Generator: Adobe Illustrator 16.0.0, SVG Export Plug-In . SVG Version: 6.00 Build 0)  -->
<!DOCTYPE svg PUBLIC "-//W3C//DTD SVG 1.1//EN" "http://www.w3.org/Graphics/SVG/1.1/DTD/svg11.dtd">
<svg version="1.1" id="Layer_1" xmlns="http://www.w3.org/2000/svg" xmlns:xlink="http://www.w3.org/1999/xlink" x="0px" y="0px"
	 width="512px" height="512px" viewBox="0 0 512 512" style="enable-background:new 0 0 512 512;" xml:space="preserve">
<g>
	<path d="M461.34,120.322H50.66c-10.629,0-19.246,8.617-19.246,19.246v232.864c0,10.629,8.617,19.246,19.246,19.246h410.68
		c10.629,0,19.246-8.617,19.246-19.246V139.568C480.586,128.939,471.969,120.322,461.34,120.322z M448.829,359.922H63.171V152.079
		h385.658V359.922z"/>
	<path d="M321.855,304.017c0.554,0.85,1.499,1.362,2.514,1.362h21.526c1.246,0,2.363-0.771,2.805-1.936
		c2.647-6.978,4.343-11.425,4.904-12.862c1.428,0,8.04,0.008,15.127,0.018l0.401,0c8.146,0.011,16.8,0.022,18.871,0.022v0
		c0.611,2.615,2.126,9.541,2.751,12.397c0.301,1.378,1.521,2.36,2.931,2.36h18.771c0.909,0,1.77-0.412,2.339-1.121
		c0.568-0.709,0.785-1.638,0.591-2.525l-20.414-92.477c-0.304-1.375-1.522-2.354-2.93-2.354h-18.338
		c-7.334,0-11.542,2.445-14.069,8.174l-38.011,86.091C321.214,302.096,321.302,303.167,321.855,304.017z M375.614,233.465
		l1.816,8.512l6.216,28.437h-22.312l-0.002,0L375.614,233.465z"/>
	<path d="M248.792,300.853c7.083,2.485,16.974,4.03,26.456,4.132c0.011,0,0.021,0,0.032,0c27.188-0.006,44.881-12.749,45.075-32.464
		c0.104-10.839-6.81-19.037-21.678-25.763c-9.1-4.421-14.675-7.357-14.623-11.853c0-4.042,5.098-8.133,14.893-8.134
		c0.237-0.004,0.516-0.006,0.79-0.006c8.134,0,13.879,1.844,17.492,3.231c0.84,0.322,1.779,0.251,2.561-0.194
		s1.321-1.217,1.473-2.104l2.427-14.277c0.25-1.473-0.621-2.905-2.044-3.36c-4.463-1.428-11.681-3.13-20.722-3.13
		c-25.626,0-43.624,12.892-43.766,31.339c-0.162,13.66,12.868,21.281,22.688,25.826c10.073,4.646,13.457,7.619,13.411,11.781
		c-0.071,6.372-8.076,9.274-15.483,9.274c-10.543,0-16.225-1.591-24.264-4.933c-0.842-0.351-1.8-0.298-2.6,0.143
		c-0.799,0.44-1.354,1.221-1.509,2.121l-2.573,15.034C246.581,298.958,247.411,300.369,248.792,300.853z"/>
	<path d="M98.528,212.444c17.185,6.185,31.242,15.999,40.652,28.382c0.582,0.766,1.475,1.185,2.39,1.185
		c0.421,0,0.846-0.088,1.247-0.272c1.276-0.584,1.978-1.976,1.688-3.349l-5.001-23.645c-0.011-0.051-0.023-0.101-0.036-0.151
		c-1.798-6.753-7.491-7.757-11.617-7.924c-0.039-0.001-0.078-0.002-0.117-0.002l-28.185-0.046c-0.002,0-0.003,0-0.005,0
		c-1.457,0-2.703,1.047-2.955,2.482C96.337,210.54,97.155,211.95,98.528,212.444z"/>
	<path d="M202.568,304.274c0.57,0.675,1.409,1.065,2.293,1.065h20.766c1.462,0,2.712-1.054,2.957-2.496l15.78-92.537
		c0.149-0.871-0.094-1.764-0.664-2.439c-0.57-0.675-1.408-1.065-2.292-1.065h-20.781c-1.463,0-2.712,1.055-2.957,2.496
		l-15.766,92.537C201.756,302.706,201.999,303.599,202.568,304.274z"/>
	<path d="M119.599,228.111c-1.031-0.792-2.452-0.83-3.522-0.097c-1.071,0.733-1.55,2.072-1.185,3.318l21.008,71.778
		c0.374,1.279,1.547,2.157,2.879,2.157c0.001,0,0.003,0,0.003,0l24.193-0.034c1.197-0.001,2.279-0.715,2.752-1.815l39.711-92.351
		c0.398-0.927,0.305-1.993-0.251-2.835c-0.555-0.843-1.496-1.35-2.505-1.35h-0.002l-21.845,0.011c-1.233,0-2.342,0.757-2.792,1.906
		l-25.557,65.288l-2.749-9.95c-0.036-0.132-0.082-0.262-0.137-0.388C145.566,254.386,134.725,239.735,119.599,228.111z"/>
</g>
<g>
</g>
</svg>
